<svg xmlns="http://www.w3.org/2000/svg" xmlns:xlink="http://www.w3.org/1999/xlink" width="3542.333" height="2362.054" viewBox="0 0 3542.333 2362.054">
  <defs>
    <clipPath id="clip-path">
      <rect id="Rectángulo_228" data-name="Rectángulo 228" width="295.194" height="295.194" transform="translate(295.194 295.194) rotate(180)" fill="none"/>
    </clipPath>
    <clipPath id="clip-path-7">
      <rect id="Rectángulo_234" data-name="Rectángulo 234" width="295.194" height="295.194" transform="translate(295.194 0) rotate(90)" fill="none"/>
    </clipPath>
    <clipPath id="clip-path-8">
      <rect id="Rectángulo_235" data-name="Rectángulo 235" width="295.194" height="295.194" transform="translate(0 295.194) rotate(-90)" fill="none" stroke="#191929" stroke-miterlimit="10" stroke-width="1"/>
    </clipPath>
  </defs>
  <g id="back_2" transform="translate(0.001 0.5)">
    <g id="Grupo_168" data-name="Grupo 168" transform="translate(590.388 590.389)">
      <g id="Grupo_167" data-name="Grupo 167" clip-path="url(#clip-path)">
        <g id="Grupo_166" data-name="Grupo 166" transform="translate(-134.78 -133.797)">
          <line id="Línea_690" data-name="Línea 690" y1="297.709" x2="297.709" transform="translate(244.794 244.794)" fill="none" stroke="#191929" stroke-miterlimit="10" stroke-width="3"/>
          <line id="Línea_691" data-name="Línea 691" y1="297.709" x2="297.709" transform="translate(267.048 267.048)" fill="none" stroke="#191929" stroke-miterlimit="10" stroke-width="3"/>
          <line id="Línea_692" data-name="Línea 692" y1="297.709" x2="297.709" transform="translate(222.54 222.54)" fill="none" stroke="#191929" stroke-miterlimit="10" stroke-width="3"/>
          <line id="Línea_693" data-name="Línea 693" y1="297.709" x2="297.709" transform="translate(200.287 200.286)" fill="none" stroke="#191929" stroke-miterlimit="10" stroke-width="3"/>
          <line id="Línea_694" data-name="Línea 694" y1="297.709" x2="297.709" transform="translate(178.032 178.032)" fill="none" stroke="#191929" stroke-miterlimit="10" stroke-width="3"/>
          <line id="Línea_695" data-name="Línea 695" y1="297.709" x2="297.709" transform="translate(155.778 155.778)" fill="none" stroke="#191929" stroke-miterlimit="10" stroke-width="3"/>
          <line id="Línea_696" data-name="Línea 696" y1="297.709" x2="297.709" transform="translate(133.523 133.524)" fill="none" stroke="#191929" stroke-miterlimit="10" stroke-width="3"/>
          <line id="Línea_697" data-name="Línea 697" y1="297.709" x2="297.709" transform="translate(111.27 111.27)" fill="none" stroke="#191929" stroke-miterlimit="10" stroke-width="3"/>
          <line id="Línea_698" data-name="Línea 698" y1="297.709" x2="297.709" transform="translate(89.017 89.016)" fill="none" stroke="#191929" stroke-miterlimit="10" stroke-width="3"/>
          <line id="Línea_699" data-name="Línea 699" y1="297.709" x2="297.709" transform="translate(66.762 66.762)" fill="none" stroke="#191929" stroke-miterlimit="10" stroke-width="3"/>
          <line id="Línea_700" data-name="Línea 700" y1="297.709" x2="297.709" transform="translate(44.508 44.508)" fill="none" stroke="#191929" stroke-miterlimit="10" stroke-width="3"/>
          <line id="Línea_701" data-name="Línea 701" y1="297.709" x2="297.709" transform="translate(22.255 22.254)" fill="none" stroke="#191929" stroke-miterlimit="10" stroke-width="3"/>
          <line id="Línea_702" data-name="Línea 702" y1="297.709" x2="297.709" fill="none" stroke="#191929" stroke-miterlimit="10" stroke-width="3"/>
        </g>
      </g>
    </g>
    <g id="Grupo_171" data-name="Grupo 171" transform="translate(590.388 1475.971)">
      <g id="Grupo_170" data-name="Grupo 170" clip-path="url(#clip-path)">
        <g id="Grupo_169" data-name="Grupo 169" transform="translate(-134.78 -133.797)">
          <line id="Línea_703" data-name="Línea 703" y1="297.709" x2="297.709" transform="translate(244.794 244.794)" fill="none" stroke="#191929" stroke-miterlimit="10" stroke-width="3"/>
          <line id="Línea_704" data-name="Línea 704" y1="297.709" x2="297.709" transform="translate(267.048 267.048)" fill="none" stroke="#191929" stroke-miterlimit="10" stroke-width="3"/>
          <line id="Línea_705" data-name="Línea 705" y1="297.709" x2="297.709" transform="translate(222.54 222.54)" fill="none" stroke="#191929" stroke-miterlimit="10" stroke-width="3"/>
          <line id="Línea_706" data-name="Línea 706" y1="297.709" x2="297.709" transform="translate(200.287 200.286)" fill="none" stroke="#191929" stroke-miterlimit="10" stroke-width="3"/>
          <line id="Línea_707" data-name="Línea 707" y1="297.709" x2="297.709" transform="translate(178.032 178.032)" fill="none" stroke="#191929" stroke-miterlimit="10" stroke-width="3"/>
          <line id="Línea_708" data-name="Línea 708" y1="297.709" x2="297.709" transform="translate(155.778 155.778)" fill="none" stroke="#191929" stroke-miterlimit="10" stroke-width="3"/>
          <line id="Línea_709" data-name="Línea 709" y1="297.709" x2="297.709" transform="translate(133.523 133.524)" fill="none" stroke="#191929" stroke-miterlimit="10" stroke-width="3"/>
          <line id="Línea_710" data-name="Línea 710" y1="297.709" x2="297.709" transform="translate(111.27 111.27)" fill="none" stroke="#191929" stroke-miterlimit="10" stroke-width="3"/>
          <line id="Línea_711" data-name="Línea 711" y1="297.709" x2="297.709" transform="translate(89.017 89.016)" fill="none" stroke="#191929" stroke-miterlimit="10" stroke-width="3"/>
          <line id="Línea_712" data-name="Línea 712" y1="297.709" x2="297.709" transform="translate(66.762 66.762)" fill="none" stroke="#191929" stroke-miterlimit="10" stroke-width="3"/>
          <line id="Línea_713" data-name="Línea 713" y1="297.709" x2="297.709" transform="translate(44.508 44.508)" fill="none" stroke="#191929" stroke-miterlimit="10" stroke-width="3"/>
          <line id="Línea_714" data-name="Línea 714" y1="297.709" x2="297.709" transform="translate(22.255 22.254)" fill="none" stroke="#191929" stroke-miterlimit="10" stroke-width="3"/>
          <line id="Línea_715" data-name="Línea 715" y1="297.709" x2="297.709" fill="none" stroke="#191929" stroke-miterlimit="10" stroke-width="3"/>
        </g>
      </g>
    </g>
    <g id="Grupo_174" data-name="Grupo 174" transform="translate(1180.777 885.583)">
      <g id="Grupo_173" data-name="Grupo 173" transform="translate(0 0)" clip-path="url(#clip-path)">
        <g id="Grupo_172" data-name="Grupo 172" transform="translate(-134.78 -133.797)">
          <line id="Línea_716" data-name="Línea 716" x1="297.709" y1="297.709" transform="translate(244.794 22.254)" fill="none" stroke="#191929" stroke-miterlimit="10" stroke-width="3"/>
          <line id="Línea_717" data-name="Línea 717" x1="297.709" y1="297.709" transform="translate(267.048)" fill="none" stroke="#191929" stroke-miterlimit="10" stroke-width="3"/>
          <line id="Línea_718" data-name="Línea 718" x1="297.709" y1="297.709" transform="translate(222.54 44.508)" fill="none" stroke="#191929" stroke-miterlimit="10" stroke-width="3"/>
          <line id="Línea_719" data-name="Línea 719" x1="297.709" y1="297.709" transform="translate(200.287 66.762)" fill="none" stroke="#191929" stroke-miterlimit="10" stroke-width="3"/>
          <line id="Línea_720" data-name="Línea 720" x1="297.709" y1="297.709" transform="translate(178.032 89.016)" fill="none" stroke="#191929" stroke-miterlimit="10" stroke-width="3"/>
          <line id="Línea_721" data-name="Línea 721" x1="297.709" y1="297.709" transform="translate(155.778 111.27)" fill="none" stroke="#191929" stroke-miterlimit="10" stroke-width="3"/>
          <line id="Línea_722" data-name="Línea 722" x1="297.709" y1="297.709" transform="translate(133.523 133.524)" fill="none" stroke="#191929" stroke-miterlimit="10" stroke-width="3"/>
          <line id="Línea_723" data-name="Línea 723" x1="297.709" y1="297.709" transform="translate(111.27 155.778)" fill="none" stroke="#191929" stroke-miterlimit="10" stroke-width="3"/>
          <line id="Línea_724" data-name="Línea 724" x1="297.709" y1="297.709" transform="translate(89.017 178.032)" fill="none" stroke="#191929" stroke-miterlimit="10" stroke-width="3"/>
          <line id="Línea_725" data-name="Línea 725" x1="297.709" y1="297.709" transform="translate(66.762 200.286)" fill="none" stroke="#191929" stroke-miterlimit="10" stroke-width="3"/>
          <line id="Línea_726" data-name="Línea 726" x1="297.709" y1="297.709" transform="translate(44.508 222.54)" fill="none" stroke="#191929" stroke-miterlimit="10" stroke-width="3"/>
          <line id="Línea_727" data-name="Línea 727" x1="297.709" y1="297.709" transform="translate(22.255 244.794)" fill="none" stroke="#191929" stroke-miterlimit="10" stroke-width="3"/>
          <line id="Línea_728" data-name="Línea 728" x1="297.709" y1="297.709" transform="translate(0 267.048)" fill="none" stroke="#191929" stroke-miterlimit="10" stroke-width="3"/>
        </g>
      </g>
    </g>
    <g id="Grupo_177" data-name="Grupo 177" transform="translate(2951.942 885.582)">
      <g id="Grupo_176" data-name="Grupo 176" transform="translate(0 0)" clip-path="url(#clip-path)">
        <g id="Grupo_175" data-name="Grupo 175" transform="translate(-134.78 -133.797)">
          <line id="Línea_729" data-name="Línea 729" y1="297.709" x2="297.709" transform="translate(244.794 244.794)" fill="none" stroke="#191929" stroke-miterlimit="10" stroke-width="3"/>
          <line id="Línea_730" data-name="Línea 730" y1="297.709" x2="297.709" transform="translate(267.048 267.048)" fill="none" stroke="#191929" stroke-miterlimit="10" stroke-width="3"/>
          <line id="Línea_731" data-name="Línea 731" y1="297.709" x2="297.709" transform="translate(222.54 222.54)" fill="none" stroke="#191929" stroke-miterlimit="10" stroke-width="3"/>
          <line id="Línea_732" data-name="Línea 732" y1="297.709" x2="297.709" transform="translate(200.287 200.286)" fill="none" stroke="#191929" stroke-miterlimit="10" stroke-width="3"/>
          <line id="Línea_733" data-name="Línea 733" y1="297.709" x2="297.709" transform="translate(178.032 178.032)" fill="none" stroke="#191929" stroke-miterlimit="10" stroke-width="3"/>
          <line id="Línea_734" data-name="Línea 734" y1="297.709" x2="297.709" transform="translate(155.778 155.778)" fill="none" stroke="#191929" stroke-miterlimit="10" stroke-width="3"/>
          <line id="Línea_735" data-name="Línea 735" y1="297.709" x2="297.709" transform="translate(133.523 133.524)" fill="none" stroke="#191929" stroke-miterlimit="10" stroke-width="3"/>
          <line id="Línea_736" data-name="Línea 736" y1="297.709" x2="297.709" transform="translate(111.27 111.27)" fill="none" stroke="#191929" stroke-miterlimit="10" stroke-width="3"/>
          <line id="Línea_737" data-name="Línea 737" y1="297.709" x2="297.709" transform="translate(89.017 89.016)" fill="none" stroke="#191929" stroke-miterlimit="10" stroke-width="3"/>
          <line id="Línea_738" data-name="Línea 738" y1="297.709" x2="297.709" transform="translate(66.762 66.762)" fill="none" stroke="#191929" stroke-miterlimit="10" stroke-width="3"/>
          <line id="Línea_739" data-name="Línea 739" y1="297.709" x2="297.709" transform="translate(44.508 44.508)" fill="none" stroke="#191929" stroke-miterlimit="10" stroke-width="3"/>
          <line id="Línea_740" data-name="Línea 740" y1="297.709" x2="297.709" transform="translate(22.255 22.254)" fill="none" stroke="#191929" stroke-miterlimit="10" stroke-width="3"/>
          <line id="Línea_741" data-name="Línea 741" y1="297.709" x2="297.709" fill="none" stroke="#191929" stroke-miterlimit="10" stroke-width="3"/>
        </g>
      </g>
    </g>
    <g id="Grupo_180" data-name="Grupo 180" transform="translate(1771.165 885.582)">
      <g id="Grupo_179" data-name="Grupo 179" transform="translate(0 0)" clip-path="url(#clip-path)">
        <g id="Grupo_178" data-name="Grupo 178" transform="translate(-134.78 -133.797)">
          <line id="Línea_742" data-name="Línea 742" y1="297.709" x2="297.709" transform="translate(244.794 244.794)" fill="none" stroke="#191929" stroke-miterlimit="10" stroke-width="3"/>
          <line id="Línea_743" data-name="Línea 743" y1="297.709" x2="297.709" transform="translate(267.048 267.048)" fill="none" stroke="#191929" stroke-miterlimit="10" stroke-width="3"/>
          <line id="Línea_744" data-name="Línea 744" y1="297.709" x2="297.709" transform="translate(222.54 222.54)" fill="none" stroke="#191929" stroke-miterlimit="10" stroke-width="3"/>
          <line id="Línea_745" data-name="Línea 745" y1="297.709" x2="297.709" transform="translate(200.287 200.286)" fill="none" stroke="#191929" stroke-miterlimit="10" stroke-width="3"/>
          <line id="Línea_746" data-name="Línea 746" y1="297.709" x2="297.709" transform="translate(178.032 178.032)" fill="none" stroke="#191929" stroke-miterlimit="10" stroke-width="3"/>
          <line id="Línea_747" data-name="Línea 747" y1="297.709" x2="297.709" transform="translate(155.778 155.778)" fill="none" stroke="#191929" stroke-miterlimit="10" stroke-width="3"/>
          <line id="Línea_748" data-name="Línea 748" y1="297.709" x2="297.709" transform="translate(133.523 133.524)" fill="none" stroke="#191929" stroke-miterlimit="10" stroke-width="3"/>
          <line id="Línea_749" data-name="Línea 749" y1="297.709" x2="297.709" transform="translate(111.27 111.27)" fill="none" stroke="#191929" stroke-miterlimit="10" stroke-width="3"/>
          <line id="Línea_750" data-name="Línea 750" y1="297.709" x2="297.709" transform="translate(89.017 89.016)" fill="none" stroke="#191929" stroke-miterlimit="10" stroke-width="3"/>
          <line id="Línea_751" data-name="Línea 751" y1="297.709" x2="297.709" transform="translate(66.762 66.762)" fill="none" stroke="#191929" stroke-miterlimit="10" stroke-width="3"/>
          <line id="Línea_752" data-name="Línea 752" y1="297.709" x2="297.709" transform="translate(44.508 44.508)" fill="none" stroke="#191929" stroke-miterlimit="10" stroke-width="3"/>
          <line id="Línea_753" data-name="Línea 753" y1="297.709" x2="297.709" transform="translate(22.255 22.254)" fill="none" stroke="#191929" stroke-miterlimit="10" stroke-width="3"/>
          <line id="Línea_754" data-name="Línea 754" y1="297.709" x2="297.709" fill="none" stroke="#191929" stroke-miterlimit="10" stroke-width="3"/>
        </g>
      </g>
    </g>
    <g id="Grupo_183" data-name="Grupo 183" transform="translate(1475.971 1771.166)">
      <g id="Grupo_182" data-name="Grupo 182" transform="translate(0 0)" clip-path="url(#clip-path)">
        <g id="Grupo_181" data-name="Grupo 181" transform="translate(-134.78 -133.797)">
          <line id="Línea_755" data-name="Línea 755" y1="297.709" x2="297.709" transform="translate(244.794 244.794)" fill="none" stroke="#191929" stroke-miterlimit="10" stroke-width="3"/>
          <line id="Línea_756" data-name="Línea 756" y1="297.709" x2="297.709" transform="translate(267.048 267.048)" fill="none" stroke="#191929" stroke-miterlimit="10" stroke-width="3"/>
          <line id="Línea_757" data-name="Línea 757" y1="297.709" x2="297.709" transform="translate(222.54 222.54)" fill="none" stroke="#191929" stroke-miterlimit="10" stroke-width="3"/>
          <line id="Línea_758" data-name="Línea 758" y1="297.709" x2="297.709" transform="translate(200.287 200.286)" fill="none" stroke="#191929" stroke-miterlimit="10" stroke-width="3"/>
          <line id="Línea_759" data-name="Línea 759" y1="297.709" x2="297.709" transform="translate(178.032 178.032)" fill="none" stroke="#191929" stroke-miterlimit="10" stroke-width="3"/>
          <line id="Línea_760" data-name="Línea 760" y1="297.709" x2="297.709" transform="translate(155.778 155.778)" fill="none" stroke="#191929" stroke-miterlimit="10" stroke-width="3"/>
          <line id="Línea_761" data-name="Línea 761" y1="297.709" x2="297.709" transform="translate(133.523 133.524)" fill="none" stroke="#191929" stroke-miterlimit="10" stroke-width="3"/>
          <line id="Línea_762" data-name="Línea 762" y1="297.709" x2="297.709" transform="translate(111.27 111.27)" fill="none" stroke="#191929" stroke-miterlimit="10" stroke-width="3"/>
          <line id="Línea_763" data-name="Línea 763" y1="297.709" x2="297.709" transform="translate(89.017 89.016)" fill="none" stroke="#191929" stroke-miterlimit="10" stroke-width="3"/>
          <line id="Línea_764" data-name="Línea 764" y1="297.709" x2="297.709" transform="translate(66.762 66.762)" fill="none" stroke="#191929" stroke-miterlimit="10" stroke-width="3"/>
          <line id="Línea_765" data-name="Línea 765" y1="297.709" x2="297.709" transform="translate(44.508 44.508)" fill="none" stroke="#191929" stroke-miterlimit="10" stroke-width="3"/>
          <line id="Línea_766" data-name="Línea 766" y1="297.709" x2="297.709" transform="translate(22.255 22.254)" fill="none" stroke="#191929" stroke-miterlimit="10" stroke-width="3"/>
          <line id="Línea_767" data-name="Línea 767" y1="297.709" x2="297.709" fill="none" stroke="#191929" stroke-miterlimit="10" stroke-width="3"/>
        </g>
      </g>
    </g>
    <g id="Grupo_186" data-name="Grupo 186" transform="translate(0.001 885.583)">
      <g id="Grupo_185" data-name="Grupo 185" transform="translate(0 0)" clip-path="url(#clip-path-7)">
        <g id="Grupo_184" data-name="Grupo 184" transform="translate(-133.797 -134.781)">
          <line id="Línea_768" data-name="Línea 768" x1="297.709" y1="297.709" transform="translate(244.794 22.254)" fill="#191929" stroke="#191929" stroke-miterlimit="10" stroke-width="3"/>
          <line id="Línea_769" data-name="Línea 769" x1="297.709" y1="297.709" transform="translate(267.048)" fill="#191929" stroke="#191929" stroke-miterlimit="10" stroke-width="3"/>
          <line id="Línea_770" data-name="Línea 770" x1="297.709" y1="297.709" transform="translate(222.539 44.508)" fill="#191929" stroke="#191929" stroke-miterlimit="10" stroke-width="3"/>
          <line id="Línea_771" data-name="Línea 771" x1="297.709" y1="297.709" transform="translate(200.285 66.762)" fill="#191929" stroke="#191929" stroke-miterlimit="10" stroke-width="3"/>
          <line id="Línea_772" data-name="Línea 772" x1="297.709" y1="297.709" transform="translate(178.032 89.016)" fill="#191929" stroke="#191929" stroke-miterlimit="10" stroke-width="3"/>
          <line id="Línea_773" data-name="Línea 773" x1="297.709" y1="297.709" transform="translate(155.778 111.27)" fill="#191929" stroke="#191929" stroke-miterlimit="10" stroke-width="3"/>
          <line id="Línea_774" data-name="Línea 774" x1="297.709" y1="297.709" transform="translate(133.523 133.524)" fill="#191929" stroke="#191929" stroke-miterlimit="10" stroke-width="3"/>
          <line id="Línea_775" data-name="Línea 775" x1="297.709" y1="297.709" transform="translate(111.269 155.778)" fill="#191929" stroke="#191929" stroke-miterlimit="10" stroke-width="3"/>
          <line id="Línea_776" data-name="Línea 776" x1="297.709" y1="297.709" transform="translate(89.016 178.032)" fill="#191929" stroke="#191929" stroke-miterlimit="10" stroke-width="3"/>
          <line id="Línea_777" data-name="Línea 777" x1="297.709" y1="297.709" transform="translate(66.762 200.286)" fill="#191929" stroke="#191929" stroke-miterlimit="10" stroke-width="3"/>
          <line id="Línea_778" data-name="Línea 778" x1="297.709" y1="297.709" transform="translate(44.508 222.54)" fill="#191929" stroke="#191929" stroke-miterlimit="10" stroke-width="3"/>
          <line id="Línea_779" data-name="Línea 779" x1="297.709" y1="297.709" transform="translate(22.253 244.794)" fill="#191929" stroke="#191929" stroke-miterlimit="10" stroke-width="3"/>
          <line id="Línea_780" data-name="Línea 780" x1="297.709" y1="297.709" transform="translate(0 267.048)" fill="#191929" stroke="#191929" stroke-miterlimit="10" stroke-width="3"/>
        </g>
      </g>
    </g>
    <g id="Grupo_189" data-name="Grupo 189" transform="translate(295.196)">
      <g id="Grupo_188" data-name="Grupo 188" transform="translate(0)" clip-path="url(#clip-path-8)">
        <g id="Grupo_187" data-name="Grupo 187" transform="translate(-135.765 -134.781)">
          <line id="Línea_781" data-name="Línea 781" x2="297.709" y2="297.709" transform="translate(22.253 244.794)" fill="none" stroke="#191929" stroke-miterlimit="10" stroke-width="3"/>
          <line id="Línea_782" data-name="Línea 782" x2="297.709" y2="297.709" transform="translate(0 267.048)" fill="none" stroke="#191929" stroke-miterlimit="10" stroke-width="3"/>
          <line id="Línea_783" data-name="Línea 783" x2="297.709" y2="297.709" transform="translate(44.507 222.54)" fill="none" stroke="#191929" stroke-miterlimit="10" stroke-width="3"/>
          <line id="Línea_784" data-name="Línea 784" x2="297.709" y2="297.709" transform="translate(66.762 200.286)" fill="none" stroke="#191929" stroke-miterlimit="10" stroke-width="3"/>
          <line id="Línea_785" data-name="Línea 785" x2="297.709" y2="297.709" transform="translate(89.015 178.032)" fill="none" stroke="#191929" stroke-miterlimit="10" stroke-width="3"/>
          <line id="Línea_786" data-name="Línea 786" x2="297.709" y2="297.709" transform="translate(111.269 155.778)" fill="none" stroke="#191929" stroke-miterlimit="10" stroke-width="3"/>
          <line id="Línea_787" data-name="Línea 787" x2="297.709" y2="297.709" transform="translate(133.523 133.524)" fill="none" stroke="#191929" stroke-miterlimit="10" stroke-width="3"/>
          <line id="Línea_788" data-name="Línea 788" x2="297.709" y2="297.709" transform="translate(155.777 111.27)" fill="none" stroke="#191929" stroke-miterlimit="10" stroke-width="3"/>
          <line id="Línea_789" data-name="Línea 789" x2="297.709" y2="297.709" transform="translate(178.032 89.016)" fill="none" stroke="#191929" stroke-miterlimit="10" stroke-width="3"/>
          <line id="Línea_790" data-name="Línea 790" x2="297.709" y2="297.709" transform="translate(200.285 66.762)" fill="none" stroke="#191929" stroke-miterlimit="10" stroke-width="3"/>
          <line id="Línea_791" data-name="Línea 791" x2="297.709" y2="297.709" transform="translate(222.539 44.508)" fill="none" stroke="#191929" stroke-miterlimit="10" stroke-width="3"/>
          <line id="Línea_792" data-name="Línea 792" x2="297.709" y2="297.709" transform="translate(244.794 22.254)" fill="none" stroke="#191929" stroke-miterlimit="10" stroke-width="3"/>
          <line id="Línea_793" data-name="Línea 793" x2="297.709" y2="297.709" transform="translate(267.047)" fill="none" stroke="#191929" stroke-miterlimit="10" stroke-width="3"/>
        </g>
      </g>
      <rect id="Rectángulo_236" data-name="Rectángulo 236" width="295.194" height="295.194" transform="translate(0 295.194) rotate(-90)" fill="none" stroke="#191929" stroke-miterlimit="10" stroke-width="1"/>
    </g>
    <rect id="Rectángulo_237" data-name="Rectángulo 237" width="295.194" height="295.194" transform="translate(0.001 590.389) rotate(-90)" fill="#f8da6c"/>
    <path id="Trazado_285" data-name="Trazado 285" d="M4148.526-514.78V-809.974H4443.72Z" transform="translate(-3853.331 1105.169)" fill="#191929"/>
    <path id="Trazado_286" data-name="Trazado 286" d="M4343.72-909.974c-163.028,0-295.194,132.164-295.194,295.194H4343.72Z" transform="translate(-4048.527 909.974)" fill="#191929"/>
    <rect id="Rectángulo_238" data-name="Rectángulo 238" width="295.194" height="295.194" transform="translate(1180.777 1180.777) rotate(180)" fill="#191929"/>
    <rect id="Rectángulo_239" data-name="Rectángulo 239" width="295.194" height="295.194" transform="translate(1771.165 885.583) rotate(180)" fill="#f8da6c"/>
    <rect id="Rectángulo_240" data-name="Rectángulo 240" width="295.194" height="295.194" transform="translate(1180.777 1771.166) rotate(180)" fill="#191929"/>
    <rect id="Rectángulo_241" data-name="Rectángulo 241" width="295.194" height="295.194" transform="translate(1475.971 2361.554) rotate(180)" fill="#f8da6c"/>
    <rect id="Rectángulo_242" data-name="Rectángulo 242" width="295.194" height="295.194" transform="translate(1771.167 1475.971) rotate(180)" fill="#f8da6c"/>
    <rect id="Rectángulo_243" data-name="Rectángulo 243" width="295.194" height="295.194" transform="translate(2066.359 1771.166) rotate(180)" fill="#db5c35"/>
    <rect id="Rectángulo_244" data-name="Rectángulo 244" width="295.194" height="295.194" transform="translate(2361.553 2066.36) rotate(180)" fill="#191929"/>
    <rect id="Rectángulo_245" data-name="Rectángulo 245" width="295.194" height="295.194" transform="translate(2656.748 2361.554) rotate(180)" fill="#db5c35"/>
    <rect id="Rectángulo_246" data-name="Rectángulo 246" width="295.194" height="295.194" transform="translate(2951.942 2066.36) rotate(180)" fill="#db5c35"/>
    <rect id="Rectángulo_247" data-name="Rectángulo 247" width="295.194" height="295.194" transform="translate(3247.136 2361.554) rotate(180)" fill="#191929"/>
    <rect id="Rectángulo_248" data-name="Rectángulo 248" width="295.194" height="295.194" transform="translate(2361.553 885.583) rotate(180)" fill="#db5c35"/>
    <rect id="Rectángulo_249" data-name="Rectángulo 249" width="295.194" height="295.194" transform="translate(2951.942 885.583) rotate(180)" fill="#db5c35"/>
    <rect id="Rectángulo_250" data-name="Rectángulo 250" width="295.194" height="295.194" transform="translate(2656.748 590.389) rotate(180)" fill="#f8da6c"/>
    <rect id="Rectángulo_251" data-name="Rectángulo 251" width="295.194" height="295.194" transform="translate(3542.33 885.583) rotate(180)" fill="#f8da6c"/>
    <rect id="Rectángulo_252" data-name="Rectángulo 252" width="295.194" height="295.194" transform="translate(2951.942 1475.971) rotate(180)" fill="#f8da6c"/>
    <rect id="Rectángulo_253" data-name="Rectángulo 253" width="295.194" height="295.194" transform="translate(3247.136 1771.166) rotate(180)" fill="#f8da6c"/>
    <rect id="Rectángulo_254" data-name="Rectángulo 254" width="295.194" height="295.194" transform="translate(3247.136 295.195) rotate(180)" fill="#191929"/>
    <rect id="Rectángulo_255" data-name="Rectángulo 255" width="295.194" height="295.194" transform="translate(590.388 2066.36) rotate(180)" fill="#f8da6c"/>
    <rect id="Rectángulo_256" data-name="Rectángulo 256" width="295.194" height="295.194" transform="translate(590.388 1475.971) rotate(180)" fill="#f8da6c"/>
    <rect id="Rectángulo_257" data-name="Rectángulo 257" width="295.194" height="295.194" transform="translate(295.196 2361.554) rotate(180)" fill="#191929"/>
    <path id="Trazado_287" data-name="Trazado 287" d="M4048.526-214.78V-509.974H4343.72Z" transform="translate(-4048.525 1690.751)" fill="#f8da6c"/>
    <path id="Trazado_288" data-name="Trazado 288" d="M4248.526-909.974c163.033,0,295.195,132.164,295.195,295.194s-132.162,295.194-295.195,295.194Z" transform="translate(-3658.138 909.974)" fill="#f8da6c"/>
    <path id="Trazado_289" data-name="Trazado 289" d="M4938.914-709.974c0,163.033-132.161,295.194-295.194,295.194s-295.193-132.161-295.193-295.194Z" transform="translate(-3462.944 1300.363)" fill="#191929"/>
    <path id="Trazado_290" data-name="Trazado 290" d="M4343.72,180.414c-163.028,0-295.194-132.161-295.194-295.194s132.165-295.194,295.194-295.194Z" transform="translate(-4048.527 1885.945)" fill="#db5c35"/>
    <path id="Trazado_291" data-name="Trazado 291" d="M5443.722-319.586c-163.032,0-295.2-132.161-295.2-295.194s132.164-295.194,295.2-295.194Z" transform="translate(-1901.39 909.974)" fill="#db5c35"/>
    <path id="Trazado_292" data-name="Trazado 292" d="M5148.526-609.974c163.033,0,295.2,132.161,295.2,295.194S5311.56-19.586,5148.526-19.586Z" transform="translate(-1901.39 1495.557)" fill="#db5c35"/>
    <path id="Trazado_293" data-name="Trazado 293" d="M5438.915-409.974c0,163.033-132.161,295.194-295.194,295.194s-295.195-132.161-295.195-295.194Z" transform="translate(-2486.972 1885.945)" fill="#f8da6c"/>
    <path id="Trazado_294" data-name="Trazado 294" d="M4548.526-514.78c0-163.03,132.165-295.194,295.195-295.194S5138.914-677.81,5138.914-514.78Z" transform="translate(-3072.555 1105.168)" fill="#f8da6c"/>
    <path id="Trazado_295" data-name="Trazado 295" d="M4248.526,85.22c0-163.03,132.164-295.194,295.195-295.194S4838.914-77.81,4838.914,85.22Z" transform="translate(-3658.138 2276.333)" fill="#db5c35"/>
    <path id="Trazado_296" data-name="Trazado 296" d="M5038.915-409.974c0,163.033-132.161,295.194-295.194,295.194s-295.194-132.161-295.194-295.194Z" transform="translate(-3267.75 1885.945)" fill="#f8da6c"/>
    <rect id="Rectángulo_258" data-name="Rectángulo 258" width="295.194" height="295.194" transform="translate(1180.777 590.389) rotate(180)" fill="#db5c35"/>
    <path id="Trazado_297" data-name="Trazado 297" d="M4348.526-614.78V-909.974H4643.72Z" transform="translate(-3462.942 909.974)" fill="#db5c35"/>
    <path id="Trazado_298" data-name="Trazado 298" d="M4448.526-514.78V-809.974h295.195Z" transform="translate(-3267.748 1105.169)" fill="#f8da6c"/>
    <path id="Trazado_299" data-name="Trazado 299" d="M4943.72-709.974V-414.78H4648.526Z" transform="translate(-2877.36 1300.363)" fill="#f8da6c"/>
    <path id="Trazado_300" data-name="Trazado 300" d="M5048.527-509.974h295.194V-214.78Z" transform="translate(-2096.584 1690.751)" fill="#191929"/>
    <path id="Trazado_301" data-name="Trazado 301" d="M5443.721,85.22H5148.526V-209.974Z" transform="translate(-1901.389 2276.333)" fill="#191929"/>
    <path id="Trazado_302" data-name="Trazado 302" d="M5243.721-809.974V-514.78H4948.526Z" transform="translate(-2291.777 1105.169)" fill="#191929"/>
    <path id="Trazado_303" data-name="Trazado 303" d="M4948.526-614.78V-909.974h295.194Z" transform="translate(-2291.777 909.974)" fill="#191929"/>
    <path id="Trazado_304" data-name="Trazado 304" d="M4748.526-114.78V-409.974h295.195Z" transform="translate(-2682.166 1885.945)" fill="#db5c35"/>
    <path id="Trazado_305" data-name="Trazado 305" d="M4843.721-909.974H4548.526V-614.78h295.194l295.195-295.194Z" transform="translate(-3072.554 909.974)" fill="#191929"/>
    <path id="Trazado_306" data-name="Trazado 306" d="M4748.526-614.78v295.194h295.195V-614.78L4748.526-909.974Z" transform="translate(-2682.166 909.974)" fill="#db5c35"/>
    <path id="Trazado_307" data-name="Trazado 307" d="M5043.721-509.974H4748.526V-214.78h295.195l295.194-295.194Z" transform="translate(-2682.166 1690.751)" fill="#db5c35"/>
    <path id="Trazado_308" data-name="Trazado 308" d="M4343.72-414.78c0-163.03-132.161-295.194-295.194-295.194V-414.78Z" transform="translate(-4048.527 1300.363)" fill="#f8da6c"/>
    <rect id="Rectángulo_259" data-name="Rectángulo 259" width="295.194" height="295.194" transform="translate(590.39 590.389) rotate(90)" fill="#f8da6c"/>
    <path id="Trazado_309" data-name="Trazado 309" d="M4148.526-609.974H4443.72V-314.78Z" transform="translate(-3853.331 1495.557)" fill="#db5c35"/>
    <path id="Trazado_310" data-name="Trazado 310" d="M4443.72,85.22H4148.526V-209.974Z" transform="translate(-3853.331 2276.333)" fill="#191929"/>
    <path id="Trazado_311" data-name="Trazado 311" d="M4743.721-614.78c0-163.03-132.162-295.194-295.194-295.194V-614.78Z" transform="translate(-3267.75 909.974)" fill="#f8da6c"/>
    <path id="Trazado_312" data-name="Trazado 312" d="M4248.526-314.78c163.033,0,295.195-132.161,295.195-295.194H4248.526Z" transform="translate(-3658.138 1495.557)" fill="#f8da6c"/>
    <path id="Trazado_313" data-name="Trazado 313" d="M4348.526-509.974H4643.72V-214.78Z" transform="translate(-3462.942 1690.751)" fill="#f8da6c"/>
    <path id="Trazado_314" data-name="Trazado 314" d="M5143.721-14.78H4848.526V-309.974Z" transform="translate(-2486.971 2081.139)" fill="#191929"/>
    <path id="Trazado_315" data-name="Trazado 315" d="M4448.526-14.779V-309.974h295.195Z" transform="translate(-3267.748 2081.14)" fill="#191929"/>
    <path id="Trazado_316" data-name="Trazado 316" d="M4843.721-309.974V-14.78H4548.526l295.195,295.194v0c163.032,0,295.193-132.161,295.193-295.194S5006.752-309.974,4843.721-309.974Z" transform="translate(-3072.555 2081.139)" fill="#f8da6c"/>
    <path id="Trazado_317" data-name="Trazado 317" d="M4543.721-509.974V-214.78H4248.526Z" transform="translate(-3658.137 1690.751)" fill="#db5c35"/>
    <path id="Trazado_318" data-name="Trazado 318" d="M4148.526-409.974H4443.72V-114.78Z" transform="translate(-3853.331 1885.945)" fill="#191929"/>
    <path id="Trazado_319" data-name="Trazado 319" d="M4448.526-214.78c163.033,0,295.194-132.161,295.194-295.194H4448.526Z" transform="translate(-3267.75 1690.751)" fill="#191929"/>
    <path id="Trazado_320" data-name="Trazado 320" d="M4748.525-209.974c0,163.033,132.165,295.194,295.194,295.194V-209.974Z" transform="translate(-2682.166 2276.333)" fill="#191929"/>
    <path id="Trazado_321" data-name="Trazado 321" d="M5043.72-609.974c-163.029,0-295.194,132.164-295.194,295.194h590.389V-609.974Z" transform="translate(-2682.166 1495.557)" fill="#f8da6c"/>
    <path id="Trazado_322" data-name="Trazado 322" d="M5143.721-414.78c0-163.03-132.162-295.194-295.195-295.194V-414.78Z" transform="translate(-2486.972 1300.363)" fill="#191929"/>
    <path id="Trazado_323" data-name="Trazado 323" d="M5638.908-114.78h.007V-409.974c-163.032,0-295.194,132.161-295.194,295.194H5048.526c0,163.033,132.164,295.194,295.195,295.194S5638.916,48.253,5638.916-114.78Z" transform="translate(-2096.585 1885.945)" fill="#191929"/>
    <path id="Trazado_324" data-name="Trazado 324" d="M4948.526-314.78c163.033,0,295.194-132.161,295.194-295.194H4948.526Z" transform="translate(-2291.779 1495.557)" fill="#191929"/>
    <path id="Trazado_325" data-name="Trazado 325" d="M5343.721-514.78c0-163.03-132.162-295.194-295.195-295.194V-514.78Z" transform="translate(-2096.585 1105.168)" fill="#f8da6c"/>
    <path id="Trazado_326" data-name="Trazado 326" d="M5143.721-909.974c-163.03,0-295.195,132.164-295.195,295.194h295.195Z" transform="translate(-2486.972 909.974)" fill="#db5c35"/>
    <path id="Trazado_327" data-name="Trazado 327" d="M4248.526-309.974c0,163.033,132.164,295.194,295.195,295.194V-309.974Z" transform="translate(-3658.138 2081.139)" fill="#f8da6c"/>
    <path id="Trazado_328" data-name="Trazado 328" d="M4843.793-609.9H4548.6c0,163.03,132.164,295.194,295.193,295.194h0V-19.512c163.034,0,295.2-132.161,295.2-295.194S5006.828-609.9,4843.793-609.9Z" transform="translate(-3072.411 1495.701)" fill="#db5c35"/>
  </g>
</svg>
