<svg id="back_1" xmlns="http://www.w3.org/2000/svg" xmlns:xlink="http://www.w3.org/1999/xlink" width="3542.331" height="2361.554" viewBox="0 0 3542.331 2361.554">
  <defs>
    <clipPath id="clip-path">
      <rect id="Rectángulo_38" data-name="Rectángulo 38" width="295.194" height="295.194" fill="none"/>
    </clipPath>
  </defs>
  <g id="Grupo_8" data-name="Grupo 8" transform="translate(1180.777 590.388)">
    <g id="Grupo_7" data-name="Grupo 7" clip-path="url(#clip-path)">
      <g id="Grupo_6" data-name="Grupo 6" transform="translate(-134.781 -135.765)">
        <line id="Línea_1" data-name="Línea 1" x1="297.709" y2="297.709" transform="translate(22.254 22.254)" fill="none" stroke="#4a607c" stroke-miterlimit="10" stroke-width="3"/>
        <line id="Línea_2" data-name="Línea 2" x1="297.709" y2="297.709" fill="none" stroke="#4a607c" stroke-miterlimit="10" stroke-width="3"/>
        <line id="Línea_3" data-name="Línea 3" x1="297.709" y2="297.709" transform="translate(44.508 44.508)" fill="none" stroke="#4a607c" stroke-miterlimit="10" stroke-width="3"/>
        <line id="Línea_4" data-name="Línea 4" x1="297.709" y2="297.709" transform="translate(66.762 66.762)" fill="none" stroke="#4a607c" stroke-miterlimit="10" stroke-width="3"/>
        <line id="Línea_5" data-name="Línea 5" x1="297.709" y2="297.709" transform="translate(89.016 89.016)" fill="none" stroke="#4a607c" stroke-miterlimit="10" stroke-width="3"/>
        <line id="Línea_6" data-name="Línea 6" x1="297.709" y2="297.709" transform="translate(111.27 111.27)" fill="none" stroke="#4a607c" stroke-miterlimit="10" stroke-width="3"/>
        <line id="Línea_7" data-name="Línea 7" x1="297.709" y2="297.709" transform="translate(133.524 133.524)" fill="none" stroke="#4a607c" stroke-miterlimit="10" stroke-width="3"/>
        <line id="Línea_8" data-name="Línea 8" x1="297.709" y2="297.709" transform="translate(155.778 155.778)" fill="none" stroke="#4a607c" stroke-miterlimit="10" stroke-width="3"/>
        <line id="Línea_9" data-name="Línea 9" x1="297.709" y2="297.709" transform="translate(178.032 178.032)" fill="none" stroke="#4a607c" stroke-miterlimit="10" stroke-width="3"/>
        <line id="Línea_10" data-name="Línea 10" x1="297.709" y2="297.709" transform="translate(200.286 200.286)" fill="none" stroke="#4a607c" stroke-miterlimit="10" stroke-width="3"/>
        <line id="Línea_11" data-name="Línea 11" x1="297.709" y2="297.709" transform="translate(222.54 222.54)" fill="none" stroke="#4a607c" stroke-miterlimit="10" stroke-width="3"/>
        <line id="Línea_12" data-name="Línea 12" x1="297.709" y2="297.709" transform="translate(244.794 244.794)" fill="none" stroke="#4a607c" stroke-miterlimit="10" stroke-width="3"/>
        <line id="Línea_13" data-name="Línea 13" x1="297.709" y2="297.709" transform="translate(267.048 267.048)" fill="none" stroke="#4a607c" stroke-miterlimit="10" stroke-width="3"/>
      </g>
    </g>
  </g>
  <g id="Grupo_11" data-name="Grupo 11" transform="translate(1180.777 295.194)">
    <g id="Grupo_10" data-name="Grupo 10" clip-path="url(#clip-path)">
      <g id="Grupo_9" data-name="Grupo 9" transform="translate(-134.781 -135.765)">
        <line id="Línea_14" data-name="Línea 14" x1="297.709" y2="297.709" transform="translate(22.254 22.254)" fill="none" stroke="#4a607c" stroke-miterlimit="10" stroke-width="3"/>
        <line id="Línea_15" data-name="Línea 15" x1="297.709" y2="297.709" fill="none" stroke="#4a607c" stroke-miterlimit="10" stroke-width="3"/>
        <line id="Línea_16" data-name="Línea 16" x1="297.709" y2="297.709" transform="translate(44.508 44.508)" fill="none" stroke="#4a607c" stroke-miterlimit="10" stroke-width="3"/>
        <line id="Línea_17" data-name="Línea 17" x1="297.709" y2="297.709" transform="translate(66.762 66.762)" fill="none" stroke="#4a607c" stroke-miterlimit="10" stroke-width="3"/>
        <line id="Línea_18" data-name="Línea 18" x1="297.709" y2="297.709" transform="translate(89.016 89.016)" fill="none" stroke="#4a607c" stroke-miterlimit="10" stroke-width="3"/>
        <line id="Línea_19" data-name="Línea 19" x1="297.709" y2="297.709" transform="translate(111.27 111.27)" fill="none" stroke="#4a607c" stroke-miterlimit="10" stroke-width="3"/>
        <line id="Línea_20" data-name="Línea 20" x1="297.709" y2="297.709" transform="translate(133.524 133.524)" fill="none" stroke="#4a607c" stroke-miterlimit="10" stroke-width="3"/>
        <line id="Línea_21" data-name="Línea 21" x1="297.709" y2="297.709" transform="translate(155.778 155.778)" fill="none" stroke="#4a607c" stroke-miterlimit="10" stroke-width="3"/>
        <line id="Línea_22" data-name="Línea 22" x1="297.709" y2="297.709" transform="translate(178.032 178.032)" fill="none" stroke="#4a607c" stroke-miterlimit="10" stroke-width="3"/>
        <line id="Línea_23" data-name="Línea 23" x1="297.709" y2="297.709" transform="translate(200.286 200.286)" fill="none" stroke="#4a607c" stroke-miterlimit="10" stroke-width="3"/>
        <line id="Línea_24" data-name="Línea 24" x1="297.709" y2="297.709" transform="translate(222.54 222.54)" fill="none" stroke="#4a607c" stroke-miterlimit="10" stroke-width="3"/>
        <line id="Línea_25" data-name="Línea 25" x1="297.709" y2="297.709" transform="translate(244.794 244.794)" fill="none" stroke="#4a607c" stroke-miterlimit="10" stroke-width="3"/>
        <line id="Línea_26" data-name="Línea 26" x1="297.709" y2="297.709" transform="translate(267.048 267.048)" fill="none" stroke="#4a607c" stroke-miterlimit="10" stroke-width="3"/>
      </g>
    </g>
  </g>
  <g id="Grupo_14" data-name="Grupo 14" transform="translate(1771.166 885.583)">
    <g id="Grupo_13" data-name="Grupo 13" clip-path="url(#clip-path)">
      <g id="Grupo_12" data-name="Grupo 12" transform="translate(-134.781 -135.765)">
        <line id="Línea_27" data-name="Línea 27" x1="297.709" y2="297.709" transform="translate(22.254 22.254)" fill="none" stroke="#4a607c" stroke-miterlimit="10" stroke-width="3"/>
        <line id="Línea_28" data-name="Línea 28" x1="297.709" y2="297.709" fill="none" stroke="#4a607c" stroke-miterlimit="10" stroke-width="3"/>
        <line id="Línea_29" data-name="Línea 29" x1="297.709" y2="297.709" transform="translate(44.508 44.508)" fill="none" stroke="#4a607c" stroke-miterlimit="10" stroke-width="3"/>
        <line id="Línea_30" data-name="Línea 30" x1="297.709" y2="297.709" transform="translate(66.762 66.762)" fill="none" stroke="#4a607c" stroke-miterlimit="10" stroke-width="3"/>
        <line id="Línea_31" data-name="Línea 31" x1="297.709" y2="297.709" transform="translate(89.016 89.016)" fill="none" stroke="#4a607c" stroke-miterlimit="10" stroke-width="3"/>
        <line id="Línea_32" data-name="Línea 32" x1="297.709" y2="297.709" transform="translate(111.27 111.27)" fill="none" stroke="#4a607c" stroke-miterlimit="10" stroke-width="3"/>
        <line id="Línea_33" data-name="Línea 33" x1="297.709" y2="297.709" transform="translate(133.524 133.524)" fill="none" stroke="#4a607c" stroke-miterlimit="10" stroke-width="3"/>
        <line id="Línea_34" data-name="Línea 34" x1="297.709" y2="297.709" transform="translate(155.778 155.778)" fill="none" stroke="#4a607c" stroke-miterlimit="10" stroke-width="3"/>
        <line id="Línea_35" data-name="Línea 35" x1="297.709" y2="297.709" transform="translate(178.032 178.032)" fill="none" stroke="#4a607c" stroke-miterlimit="10" stroke-width="3"/>
        <line id="Línea_36" data-name="Línea 36" x1="297.709" y2="297.709" transform="translate(200.286 200.286)" fill="none" stroke="#4a607c" stroke-miterlimit="10" stroke-width="3"/>
        <line id="Línea_37" data-name="Línea 37" x1="297.709" y2="297.709" transform="translate(222.54 222.54)" fill="none" stroke="#4a607c" stroke-miterlimit="10" stroke-width="3"/>
        <line id="Línea_38" data-name="Línea 38" x1="297.709" y2="297.709" transform="translate(244.794 244.794)" fill="none" stroke="#4a607c" stroke-miterlimit="10" stroke-width="3"/>
        <line id="Línea_39" data-name="Línea 39" x1="297.709" y2="297.709" transform="translate(267.048 267.048)" fill="none" stroke="#4a607c" stroke-miterlimit="10" stroke-width="3"/>
      </g>
    </g>
  </g>
  <g id="Grupo_17" data-name="Grupo 17" transform="translate(3247.136 1180.777)">
    <g id="Grupo_16" data-name="Grupo 16" clip-path="url(#clip-path)">
      <g id="Grupo_15" data-name="Grupo 15" transform="translate(-134.781 -135.765)">
        <line id="Línea_40" data-name="Línea 40" x1="297.709" y2="297.709" transform="translate(22.254 22.254)" fill="none" stroke="#4a607c" stroke-miterlimit="10" stroke-width="3"/>
        <line id="Línea_41" data-name="Línea 41" x1="297.709" y2="297.709" fill="none" stroke="#4a607c" stroke-miterlimit="10" stroke-width="3"/>
        <line id="Línea_42" data-name="Línea 42" x1="297.709" y2="297.709" transform="translate(44.508 44.508)" fill="none" stroke="#4a607c" stroke-miterlimit="10" stroke-width="3"/>
        <line id="Línea_43" data-name="Línea 43" x1="297.709" y2="297.709" transform="translate(66.762 66.762)" fill="none" stroke="#4a607c" stroke-miterlimit="10" stroke-width="3"/>
        <line id="Línea_44" data-name="Línea 44" x1="297.709" y2="297.709" transform="translate(89.016 89.016)" fill="none" stroke="#4a607c" stroke-miterlimit="10" stroke-width="3"/>
        <line id="Línea_45" data-name="Línea 45" x1="297.709" y2="297.709" transform="translate(111.27 111.27)" fill="none" stroke="#4a607c" stroke-miterlimit="10" stroke-width="3"/>
        <line id="Línea_46" data-name="Línea 46" x1="297.709" y2="297.709" transform="translate(133.524 133.524)" fill="none" stroke="#4a607c" stroke-miterlimit="10" stroke-width="3"/>
        <line id="Línea_47" data-name="Línea 47" x1="297.709" y2="297.709" transform="translate(155.778 155.778)" fill="none" stroke="#4a607c" stroke-miterlimit="10" stroke-width="3"/>
        <line id="Línea_48" data-name="Línea 48" x1="297.709" y2="297.709" transform="translate(178.032 178.032)" fill="none" stroke="#4a607c" stroke-miterlimit="10" stroke-width="3"/>
        <line id="Línea_49" data-name="Línea 49" x1="297.709" y2="297.709" transform="translate(200.286 200.286)" fill="none" stroke="#4a607c" stroke-miterlimit="10" stroke-width="3"/>
        <line id="Línea_50" data-name="Línea 50" x1="297.709" y2="297.709" transform="translate(222.54 222.54)" fill="none" stroke="#4a607c" stroke-miterlimit="10" stroke-width="3"/>
        <line id="Línea_51" data-name="Línea 51" x1="297.709" y2="297.709" transform="translate(244.794 244.794)" fill="none" stroke="#4a607c" stroke-miterlimit="10" stroke-width="3"/>
        <line id="Línea_52" data-name="Línea 52" x1="297.709" y2="297.709" transform="translate(267.048 267.048)" fill="none" stroke="#4a607c" stroke-miterlimit="10" stroke-width="3"/>
      </g>
    </g>
  </g>
  <g id="Grupo_20" data-name="Grupo 20" transform="translate(2656.748 590.388)">
    <g id="Grupo_19" data-name="Grupo 19" clip-path="url(#clip-path)">
      <g id="Grupo_18" data-name="Grupo 18" transform="translate(-134.781 -135.765)">
        <line id="Línea_53" data-name="Línea 53" x1="297.709" y2="297.709" transform="translate(22.254 22.254)" fill="none" stroke="#4a607c" stroke-miterlimit="10" stroke-width="3"/>
        <line id="Línea_54" data-name="Línea 54" x1="297.709" y2="297.709" fill="none" stroke="#4a607c" stroke-miterlimit="10" stroke-width="3"/>
        <line id="Línea_55" data-name="Línea 55" x1="297.709" y2="297.709" transform="translate(44.508 44.508)" fill="none" stroke="#4a607c" stroke-miterlimit="10" stroke-width="3"/>
        <line id="Línea_56" data-name="Línea 56" x1="297.709" y2="297.709" transform="translate(66.762 66.762)" fill="none" stroke="#4a607c" stroke-miterlimit="10" stroke-width="3"/>
        <line id="Línea_57" data-name="Línea 57" x1="297.709" y2="297.709" transform="translate(89.016 89.016)" fill="none" stroke="#4a607c" stroke-miterlimit="10" stroke-width="3"/>
        <line id="Línea_58" data-name="Línea 58" x1="297.709" y2="297.709" transform="translate(111.27 111.27)" fill="none" stroke="#4a607c" stroke-miterlimit="10" stroke-width="3"/>
        <line id="Línea_59" data-name="Línea 59" x1="297.709" y2="297.709" transform="translate(133.524 133.524)" fill="none" stroke="#4a607c" stroke-miterlimit="10" stroke-width="3"/>
        <line id="Línea_60" data-name="Línea 60" x1="297.709" y2="297.709" transform="translate(155.778 155.778)" fill="none" stroke="#4a607c" stroke-miterlimit="10" stroke-width="3"/>
        <line id="Línea_61" data-name="Línea 61" x1="297.709" y2="297.709" transform="translate(178.032 178.032)" fill="none" stroke="#4a607c" stroke-miterlimit="10" stroke-width="3"/>
        <line id="Línea_62" data-name="Línea 62" x1="297.709" y2="297.709" transform="translate(200.286 200.286)" fill="none" stroke="#4a607c" stroke-miterlimit="10" stroke-width="3"/>
        <line id="Línea_63" data-name="Línea 63" x1="297.709" y2="297.709" transform="translate(222.54 222.54)" fill="none" stroke="#4a607c" stroke-miterlimit="10" stroke-width="3"/>
        <line id="Línea_64" data-name="Línea 64" x1="297.709" y2="297.709" transform="translate(244.794 244.794)" fill="none" stroke="#4a607c" stroke-miterlimit="10" stroke-width="3"/>
        <line id="Línea_65" data-name="Línea 65" x1="297.709" y2="297.709" transform="translate(267.048 267.048)" fill="none" stroke="#4a607c" stroke-miterlimit="10" stroke-width="3"/>
      </g>
    </g>
  </g>
  <g id="Grupo_23" data-name="Grupo 23" transform="translate(2361.554 1475.971)">
    <g id="Grupo_22" data-name="Grupo 22" clip-path="url(#clip-path)">
      <g id="Grupo_21" data-name="Grupo 21" transform="translate(-134.781 -135.765)">
        <line id="Línea_66" data-name="Línea 66" x1="297.709" y2="297.709" transform="translate(22.254 22.254)" fill="none" stroke="#4a607c" stroke-miterlimit="10" stroke-width="3"/>
        <line id="Línea_67" data-name="Línea 67" x1="297.709" y2="297.709" fill="none" stroke="#4a607c" stroke-miterlimit="10" stroke-width="3"/>
        <line id="Línea_68" data-name="Línea 68" x1="297.709" y2="297.709" transform="translate(44.508 44.508)" fill="none" stroke="#4a607c" stroke-miterlimit="10" stroke-width="3"/>
        <line id="Línea_69" data-name="Línea 69" x1="297.709" y2="297.709" transform="translate(66.762 66.762)" fill="none" stroke="#4a607c" stroke-miterlimit="10" stroke-width="3"/>
        <line id="Línea_70" data-name="Línea 70" x1="297.709" y2="297.709" transform="translate(89.016 89.016)" fill="none" stroke="#4a607c" stroke-miterlimit="10" stroke-width="3"/>
        <line id="Línea_71" data-name="Línea 71" x1="297.709" y2="297.709" transform="translate(111.27 111.27)" fill="none" stroke="#4a607c" stroke-miterlimit="10" stroke-width="3"/>
        <line id="Línea_72" data-name="Línea 72" x1="297.709" y2="297.709" transform="translate(133.524 133.524)" fill="none" stroke="#4a607c" stroke-miterlimit="10" stroke-width="3"/>
        <line id="Línea_73" data-name="Línea 73" x1="297.709" y2="297.709" transform="translate(155.778 155.778)" fill="none" stroke="#4a607c" stroke-miterlimit="10" stroke-width="3"/>
        <line id="Línea_74" data-name="Línea 74" x1="297.709" y2="297.709" transform="translate(178.032 178.032)" fill="none" stroke="#4a607c" stroke-miterlimit="10" stroke-width="3"/>
        <line id="Línea_75" data-name="Línea 75" x1="297.709" y2="297.709" transform="translate(200.286 200.286)" fill="none" stroke="#4a607c" stroke-miterlimit="10" stroke-width="3"/>
        <line id="Línea_76" data-name="Línea 76" x1="297.709" y2="297.709" transform="translate(222.54 222.54)" fill="none" stroke="#4a607c" stroke-miterlimit="10" stroke-width="3"/>
        <line id="Línea_77" data-name="Línea 77" x1="297.709" y2="297.709" transform="translate(244.794 244.794)" fill="none" stroke="#4a607c" stroke-miterlimit="10" stroke-width="3"/>
        <line id="Línea_78" data-name="Línea 78" x1="297.709" y2="297.709" transform="translate(267.048 267.048)" fill="none" stroke="#4a607c" stroke-miterlimit="10" stroke-width="3"/>
      </g>
    </g>
  </g>
  <g id="Grupo_26" data-name="Grupo 26" transform="translate(2656.748 2066.359)">
    <g id="Grupo_25" data-name="Grupo 25" transform="translate(0 0)" clip-path="url(#clip-path)">
      <g id="Grupo_24" data-name="Grupo 24" transform="translate(-134.781 -135.765)">
        <line id="Línea_79" data-name="Línea 79" x1="297.709" y2="297.709" transform="translate(22.254 22.254)" fill="none" stroke="#4a607c" stroke-miterlimit="10" stroke-width="3"/>
        <line id="Línea_80" data-name="Línea 80" x1="297.709" y2="297.709" fill="none" stroke="#4a607c" stroke-miterlimit="10" stroke-width="3"/>
        <line id="Línea_81" data-name="Línea 81" x1="297.709" y2="297.709" transform="translate(44.508 44.508)" fill="none" stroke="#4a607c" stroke-miterlimit="10" stroke-width="3"/>
        <line id="Línea_82" data-name="Línea 82" x1="297.709" y2="297.709" transform="translate(66.762 66.762)" fill="none" stroke="#4a607c" stroke-miterlimit="10" stroke-width="3"/>
        <line id="Línea_83" data-name="Línea 83" x1="297.709" y2="297.709" transform="translate(89.016 89.016)" fill="none" stroke="#4a607c" stroke-miterlimit="10" stroke-width="3"/>
        <line id="Línea_84" data-name="Línea 84" x1="297.709" y2="297.709" transform="translate(111.27 111.27)" fill="none" stroke="#4a607c" stroke-miterlimit="10" stroke-width="3"/>
        <line id="Línea_85" data-name="Línea 85" x1="297.709" y2="297.709" transform="translate(133.524 133.524)" fill="none" stroke="#4a607c" stroke-miterlimit="10" stroke-width="3"/>
        <line id="Línea_86" data-name="Línea 86" x1="297.709" y2="297.709" transform="translate(155.778 155.778)" fill="none" stroke="#4a607c" stroke-miterlimit="10" stroke-width="3"/>
        <line id="Línea_87" data-name="Línea 87" x1="297.709" y2="297.709" transform="translate(178.032 178.032)" fill="none" stroke="#4a607c" stroke-miterlimit="10" stroke-width="3"/>
        <line id="Línea_88" data-name="Línea 88" x1="297.709" y2="297.709" transform="translate(200.286 200.286)" fill="none" stroke="#4a607c" stroke-miterlimit="10" stroke-width="3"/>
        <line id="Línea_89" data-name="Línea 89" x1="297.709" y2="297.709" transform="translate(222.54 222.54)" fill="none" stroke="#4a607c" stroke-miterlimit="10" stroke-width="3"/>
        <line id="Línea_90" data-name="Línea 90" x1="297.709" y2="297.709" transform="translate(244.794 244.794)" fill="none" stroke="#4a607c" stroke-miterlimit="10" stroke-width="3"/>
        <line id="Línea_91" data-name="Línea 91" x1="297.709" y2="297.709" transform="translate(267.048 267.048)" fill="none" stroke="#4a607c" stroke-miterlimit="10" stroke-width="3"/>
      </g>
    </g>
  </g>
  <g id="Grupo_29" data-name="Grupo 29" transform="translate(590.389 1180.777)">
    <g id="Grupo_28" data-name="Grupo 28" clip-path="url(#clip-path)">
      <g id="Grupo_27" data-name="Grupo 27" transform="translate(-134.781 -135.765)">
        <line id="Línea_92" data-name="Línea 92" x1="297.709" y2="297.709" transform="translate(22.254 22.254)" fill="none" stroke="#4a607c" stroke-miterlimit="10" stroke-width="3"/>
        <line id="Línea_93" data-name="Línea 93" x1="297.709" y2="297.709" fill="none" stroke="#4a607c" stroke-miterlimit="10" stroke-width="3"/>
        <line id="Línea_94" data-name="Línea 94" x1="297.709" y2="297.709" transform="translate(44.508 44.508)" fill="none" stroke="#4a607c" stroke-miterlimit="10" stroke-width="3"/>
        <line id="Línea_95" data-name="Línea 95" x1="297.709" y2="297.709" transform="translate(66.762 66.762)" fill="none" stroke="#4a607c" stroke-miterlimit="10" stroke-width="3"/>
        <line id="Línea_96" data-name="Línea 96" x1="297.709" y2="297.709" transform="translate(89.016 89.016)" fill="none" stroke="#4a607c" stroke-miterlimit="10" stroke-width="3"/>
        <line id="Línea_97" data-name="Línea 97" x1="297.709" y2="297.709" transform="translate(111.27 111.27)" fill="none" stroke="#4a607c" stroke-miterlimit="10" stroke-width="3"/>
        <line id="Línea_98" data-name="Línea 98" x1="297.709" y2="297.709" transform="translate(133.524 133.524)" fill="none" stroke="#4a607c" stroke-miterlimit="10" stroke-width="3"/>
        <line id="Línea_99" data-name="Línea 99" x1="297.709" y2="297.709" transform="translate(155.778 155.778)" fill="none" stroke="#4a607c" stroke-miterlimit="10" stroke-width="3"/>
        <line id="Línea_100" data-name="Línea 100" x1="297.709" y2="297.709" transform="translate(178.032 178.032)" fill="none" stroke="#4a607c" stroke-miterlimit="10" stroke-width="3"/>
        <line id="Línea_101" data-name="Línea 101" x1="297.709" y2="297.709" transform="translate(200.286 200.286)" fill="none" stroke="#4a607c" stroke-miterlimit="10" stroke-width="3"/>
        <line id="Línea_102" data-name="Línea 102" x1="297.709" y2="297.709" transform="translate(222.54 222.54)" fill="none" stroke="#4a607c" stroke-miterlimit="10" stroke-width="3"/>
        <line id="Línea_103" data-name="Línea 103" x1="297.709" y2="297.709" transform="translate(244.794 244.794)" fill="none" stroke="#4a607c" stroke-miterlimit="10" stroke-width="3"/>
        <line id="Línea_104" data-name="Línea 104" x1="297.709" y2="297.709" transform="translate(267.048 267.048)" fill="none" stroke="#4a607c" stroke-miterlimit="10" stroke-width="3"/>
      </g>
    </g>
  </g>
  <g id="Grupo_32" data-name="Grupo 32" transform="translate(0.001 590.388)">
    <g id="Grupo_31" data-name="Grupo 31" clip-path="url(#clip-path)">
      <g id="Grupo_30" data-name="Grupo 30" transform="translate(-134.781 -135.765)">
        <line id="Línea_105" data-name="Línea 105" x1="297.709" y2="297.709" transform="translate(22.254 22.254)" fill="none" stroke="#4a607c" stroke-miterlimit="10" stroke-width="3"/>
        <line id="Línea_106" data-name="Línea 106" x1="297.709" y2="297.709" fill="none" stroke="#4a607c" stroke-miterlimit="10" stroke-width="3"/>
        <line id="Línea_107" data-name="Línea 107" x1="297.709" y2="297.709" transform="translate(44.508 44.508)" fill="none" stroke="#4a607c" stroke-miterlimit="10" stroke-width="3"/>
        <line id="Línea_108" data-name="Línea 108" x1="297.709" y2="297.709" transform="translate(66.762 66.762)" fill="none" stroke="#4a607c" stroke-miterlimit="10" stroke-width="3"/>
        <line id="Línea_109" data-name="Línea 109" x1="297.709" y2="297.709" transform="translate(89.016 89.016)" fill="none" stroke="#4a607c" stroke-miterlimit="10" stroke-width="3"/>
        <line id="Línea_110" data-name="Línea 110" x1="297.709" y2="297.709" transform="translate(111.27 111.27)" fill="none" stroke="#4a607c" stroke-miterlimit="10" stroke-width="3"/>
        <line id="Línea_111" data-name="Línea 111" x1="297.709" y2="297.709" transform="translate(133.524 133.524)" fill="none" stroke="#4a607c" stroke-miterlimit="10" stroke-width="3"/>
        <line id="Línea_112" data-name="Línea 112" x1="297.709" y2="297.709" transform="translate(155.778 155.778)" fill="none" stroke="#4a607c" stroke-miterlimit="10" stroke-width="3"/>
        <line id="Línea_113" data-name="Línea 113" x1="297.709" y2="297.709" transform="translate(178.032 178.032)" fill="none" stroke="#4a607c" stroke-miterlimit="10" stroke-width="3"/>
        <line id="Línea_114" data-name="Línea 114" x1="297.709" y2="297.709" transform="translate(200.286 200.286)" fill="none" stroke="#4a607c" stroke-miterlimit="10" stroke-width="3"/>
        <line id="Línea_115" data-name="Línea 115" x1="297.709" y2="297.709" transform="translate(222.54 222.54)" fill="none" stroke="#4a607c" stroke-miterlimit="10" stroke-width="3"/>
        <line id="Línea_116" data-name="Línea 116" x1="297.709" y2="297.709" transform="translate(244.794 244.794)" fill="none" stroke="#4a607c" stroke-miterlimit="10" stroke-width="3"/>
        <line id="Línea_117" data-name="Línea 117" x1="297.709" y2="297.709" transform="translate(267.048 267.048)" fill="none" stroke="#4a607c" stroke-miterlimit="10" stroke-width="3"/>
      </g>
    </g>
  </g>
  <g id="Grupo_33" data-name="Grupo 33">
    <rect id="Rectángulo_47" data-name="Rectángulo 47" width="295.194" height="295.194" transform="translate(1180.777)" fill="#fff"/>
    <rect id="Rectángulo_48" data-name="Rectángulo 48" width="295.194" height="295.194" transform="translate(1475.972 885.583)" fill="#fff"/>
    <rect id="Rectángulo_49" data-name="Rectángulo 49" width="295.194" height="295.194" transform="translate(1771.166 1475.971)" fill="#bbd4ea"/>
    <rect id="Rectángulo_50" data-name="Rectángulo 50" width="295.194" height="295.194" transform="translate(2656.748 1180.777)" fill="#e4943d"/>
    <rect id="Rectángulo_51" data-name="Rectángulo 51" width="295.194" height="295.194" transform="translate(2951.942 885.583)" fill="#e4943d"/>
    <rect id="Rectángulo_52" data-name="Rectángulo 52" width="295.194" height="295.194" transform="translate(3247.136 1475.971)" fill="#4a607c"/>
    <rect id="Rectángulo_53" data-name="Rectángulo 53" width="295.194" height="295.194" transform="translate(2951.942 1771.165)" fill="#bbd4ea"/>
    <rect id="Rectángulo_54" data-name="Rectángulo 54" width="295.194" height="295.194" transform="translate(2361.554 1771.165)" fill="#4a607c"/>
    <rect id="Rectángulo_55" data-name="Rectángulo 55" width="295.194" height="295.194" transform="translate(1475.971 2066.359)" fill="#4a607c"/>
    <rect id="Rectángulo_56" data-name="Rectángulo 56" width="295.194" height="295.194" transform="translate(1771.166 295.194)" fill="#bbd4ea"/>
    <rect id="Rectángulo_57" data-name="Rectángulo 57" width="295.194" height="295.194" transform="translate(2066.36)" fill="#fff"/>
    <rect id="Rectángulo_58" data-name="Rectángulo 58" width="295.194" height="295.194" transform="translate(3247.136)" fill="#fff"/>
    <rect id="Rectángulo_59" data-name="Rectángulo 59" width="295.194" height="295.194" transform="translate(2656.748 295.194)" fill="#bbd4ea"/>
    <rect id="Rectángulo_60" data-name="Rectángulo 60" width="295.194" height="295.194" transform="translate(2066.36 590.388)" fill="#bbd4ea"/>
    <rect id="Rectángulo_61" data-name="Rectángulo 61" width="295.194" height="295.194" transform="translate(885.583 1180.777)" fill="#4a607c"/>
    <rect id="Rectángulo_62" data-name="Rectángulo 62" width="295.194" height="295.194" transform="translate(1180.777 1475.971)" fill="#bbd4ea"/>
    <rect id="Rectángulo_63" data-name="Rectángulo 63" width="295.194" height="295.194" transform="translate(885.583 2066.359)" fill="#e4943d"/>
    <rect id="Rectángulo_64" data-name="Rectángulo 64" width="295.194" height="295.194" transform="translate(295.195 2066.359)" fill="#4a607c"/>
    <rect id="Rectángulo_65" data-name="Rectángulo 65" width="295.194" height="295.194" transform="translate(0.001 1475.971)" fill="#fff"/>
    <rect id="Rectángulo_66" data-name="Rectángulo 66" width="295.194" height="295.194" transform="translate(590.389 1475.971)" fill="#e4943d"/>
    <rect id="Rectángulo_67" data-name="Rectángulo 67" width="295.194" height="295.194" transform="translate(0.001 885.583)" fill="#bbd4ea"/>
    <path id="Trazado_4" data-name="Trazado 4" d="M102.222-943.637v590.388L397.416-648.443V-943.637Z" transform="translate(192.973 943.637)" fill="#e4943d"/>
    <path id="Trazado_5" data-name="Trazado 5" d="M202.222-943.637H497.416v295.194Z" transform="translate(388.167 943.637)" fill="#4a607c"/>
    <path id="Trazado_6" data-name="Trazado 6" d="M597.417-548.443H302.222V-843.637Z" transform="translate(583.361 1138.832)" fill="#4a607c"/>
    <path id="Trazado_7" data-name="Trazado 7" d="M1297.416-648.443H1002.222V-943.637Z" transform="translate(1949.72 943.637)" fill="#4a607c"/>
    <path id="Trazado_8" data-name="Trazado 8" d="M1097.416-548.443H802.222V-843.637Z" transform="translate(1559.332 1138.832)" fill="#e4943d"/>
    <path id="Trazado_9" data-name="Trazado 9" d="M997.416-643.637v295.194H702.222Z" transform="translate(1364.138 1529.22)" fill="#bbd4ea"/>
    <path id="Trazado_10" data-name="Trazado 10" d="M1397.416-743.637v295.194H1102.222Z" transform="translate(2144.914 1334.026)" fill="#bbd4ea"/>
    <path id="Trazado_11" data-name="Trazado 11" d="M502.222-248.443V-543.637H797.417Z" transform="translate(973.749 1724.414)" fill="#4a607c"/>
    <path id="Trazado_12" data-name="Trazado 12" d="M802.222,51.557V-243.637h295.194Z" transform="translate(1559.332 2309.997)" fill="#4a607c"/>
    <path id="Trazado_13" data-name="Trazado 13" d="M897.416-343.637V-48.443H602.222Z" transform="translate(1168.943 2114.802)" fill="#4a607c"/>
    <path id="Trazado_14" data-name="Trazado 14" d="M402.222-343.637H697.416V-48.443Z" transform="translate(778.555 2114.802)" fill="#4a607c"/>
    <path id="Trazado_15" data-name="Trazado 15" d="M1002.222-243.637h295.194V51.557Z" transform="translate(1949.72 2309.997)" fill="#e4943d"/>
    <path id="Trazado_16" data-name="Trazado 16" d="M902.222-443.637h295.194v295.194Z" transform="translate(1754.526 1919.608)" fill="#fff"/>
    <path id="Trazado_17" data-name="Trazado 17" d="M202.222-543.637H497.416v295.194Z" transform="translate(388.167 1724.414)" fill="#e4943d"/>
    <path id="Trazado_18" data-name="Trazado 18" d="M302.222-743.637v295.194L597.416-153.249V-743.637Z" transform="translate(583.361 1334.026)" fill="#bbd4ea"/>
    <path id="Trazado_19" data-name="Trazado 19" d="M102.222-743.637H397.416v295.194Z" transform="translate(192.973 1334.026)" fill="#e4943d"/>
    <path id="Trazado_20" data-name="Trazado 20" d="M297.416-548.443H2.222V-843.637Z" transform="translate(-2.222 1138.832)" fill="#fff"/>
    <path id="Trazado_21" data-name="Trazado 21" d="M202.222-743.637c163.033,0,295.194,132.161,295.194,295.194S365.255-153.249,202.222-153.249Z" transform="translate(388.166 1334.026)" fill="#fff"/>
    <path id="Trazado_22" data-name="Trazado 22" d="M592.61-343.637c0,163.03-132.161,295.194-295.194,295.194S2.222-180.607,2.222-343.637Z" transform="translate(-2.222 2114.803)" fill="#e4943d"/>
    <path id="Trazado_23" data-name="Trazado 23" d="M992.61-743.637c0,163.03-132.161,295.194-295.194,295.194S402.222-580.607,402.222-743.637Z" transform="translate(778.555 1334.026)" fill="#e4943d"/>
    <path id="Trazado_24" data-name="Trazado 24" d="M302.222-443.637c163.033,0,295.194,132.161,295.194,295.194S465.255,146.751,302.222,146.751Z" transform="translate(583.36 1919.609)" fill="#4a607c"/>
    <path id="Trazado_25" data-name="Trazado 25" d="M1392.61-943.637c0,163.03-132.161,295.194-295.194,295.194S802.222-780.607,802.222-943.637Z" transform="translate(1559.331 943.638)" fill="#4a607c"/>
    <path id="Trazado_26" data-name="Trazado 26" d="M1397.416,246.751c-163.03,0-295.194-132.164-295.194-295.194s132.164-295.194,295.194-295.194Z" transform="translate(2144.914 2114.803)" fill="#bbd4ea"/>
    <path id="Trazado_27" data-name="Trazado 27" d="M797.416,146.751c-163.03,0-295.194-132.164-295.194-295.194S634.386-443.637,797.416-443.637Z" transform="translate(973.749 1919.609)" fill="#4a607c"/>
    <path id="Trazado_28" data-name="Trazado 28" d="M1592.61-843.637c0,163.03-132.161,295.194-295.194,295.194s-295.194-132.164-295.194-295.194Z" transform="translate(1949.72 1138.832)" fill="#e4943d"/>
    <path id="Trazado_29" data-name="Trazado 29" d="M2.222-943.637c0,163.03,132.164,295.194,295.194,295.194V-943.637Z" transform="translate(-2.222 943.638)" fill="#4a607c"/>
    <path id="Trazado_30" data-name="Trazado 30" d="M202.222-843.637c0,163.03,132.164,295.194,295.194,295.194V-843.637Z" transform="translate(388.166 1138.832)" fill="#fff"/>
    <path id="Trazado_31" data-name="Trazado 31" d="M297.416,51.557c0-163.033-132.161-295.194-295.194-295.194V51.557Z" transform="translate(-2.222 2309.997)" fill="#e4943d"/>
    <path id="Trazado_32" data-name="Trazado 32" d="M302.222-943.637c0,163.03,132.164,295.194,295.194,295.194V-943.637Z" transform="translate(583.36 943.638)" fill="#4a607c"/>
    <path id="Trazado_33" data-name="Trazado 33" d="M797.416-648.443,502.222-943.637v295.194h0c0,163.03,132.164,295.194,295.194,295.194V-648.443h0Z" transform="translate(973.749 943.638)" fill="#4a607c"/>
    <path id="Trazado_34" data-name="Trazado 34" d="M402.222,51.557c163.033,0,295.194-132.164,295.194-295.194H402.222Z" transform="translate(778.555 2309.997)" fill="#4a607c"/>
    <path id="Trazado_35" data-name="Trazado 35" d="M702.222-543.637v295.194c0,163.03,132.164,295.194,295.194,295.194V-543.637Z" transform="translate(1364.137 1724.415)" fill="#e4943d"/>
    <path id="Trazado_36" data-name="Trazado 36" d="M997.393-50.412C996.33-212.535,864.6-343.637,702.222-343.637V246.751H997.416V-50.412Z" transform="translate(1364.137 2114.803)" fill="#e4943d"/>
    <path id="Trazado_37" data-name="Trazado 37" d="M897.416-248.443c0-163.033-132.161-295.194-295.194-295.194v295.194Z" transform="translate(1168.943 1724.415)" fill="#e4943d"/>
    <path id="Trazado_38" data-name="Trazado 38" d="M802.222-543.637c0,163.03,132.164,295.194,295.194,295.194V-543.637Z" transform="translate(1559.331 1724.415)" fill="#bbd4ea"/>
    <path id="Trazado_39" data-name="Trazado 39" d="M1102.222-643.637c0,163.03,132.164,295.194,295.194,295.194V-643.637Z" transform="translate(2144.914 1529.221)" fill="#e4943d"/>
    <path id="Trazado_40" data-name="Trazado 40" d="M1002.222-148.443c163.033,0,295.194-132.164,295.194-295.194H1002.222Z" transform="translate(1949.72 1919.609)" fill="#e4943d"/>
    <path id="Trazado_41" data-name="Trazado 41" d="M902.222-48.443c163.033,0,295.194-132.164,295.194-295.194H902.222Z" transform="translate(1754.526 2114.803)" fill="#4a607c"/>
    <path id="Trazado_42" data-name="Trazado 42" d="M402.222-248.443c163.033,0,295.194-132.164,295.194-295.194H402.222Z" transform="translate(778.555 1724.415)" fill="#fff"/>
    <path id="Trazado_43" data-name="Trazado 43" d="M297.416-543.637H2.222L297.416-248.443c163.033,0,295.194-132.164,295.194-295.194Z" transform="translate(-2.222 1724.415)" fill="#e4943d"/>
    <path id="Trazado_44" data-name="Trazado 44" d="M202.222-48.443V246.751c163.033,0,295.194-132.164,295.194-295.194V-343.637Z" transform="translate(388.166 2114.803)" fill="#fff"/>
    <path id="Trazado_45" data-name="Trazado 45" d="M602.222-448.443c163.033,0,295.194-132.164,295.194-295.194H602.222Z" transform="translate(1168.943 1334.026)" fill="#4a607c"/>
    <path id="Trazado_46" data-name="Trazado 46" d="M802.222-348.443c163.033,0,295.194-132.164,295.194-295.194H802.222Z" transform="translate(1559.331 1529.221)" fill="#4a607c"/>
    <path id="Trazado_47" data-name="Trazado 47" d="M402.222-348.443c163.033,0,295.194-132.164,295.194-295.194H402.222Z" transform="translate(778.555 1529.221)" fill="#e4943d"/>
    <path id="Trazado_48" data-name="Trazado 48" d="M602.222,51.557c163.033,0,295.194-132.164,295.194-295.194H602.222Z" transform="translate(1168.943 2309.997)" fill="#fff"/>
    <path id="Trazado_49" data-name="Trazado 49" d="M602.222-648.443c163.033,0,295.194-132.164,295.194-295.194H602.222Z" transform="translate(1168.943 943.638)" fill="#4a607c"/>
    <path id="Trazado_50" data-name="Trazado 50" d="M997.416-843.637c-163.03,0-295.194,132.162-295.194,295.194H997.416Z" transform="translate(1364.137 1138.832)" fill="#e4943d"/>
  </g>
</svg>
