<svg xmlns="http://www.w3.org/2000/svg" xmlns:xlink="http://www.w3.org/1999/xlink" width="3542.331" height="2361.557" viewBox="0 0 3542.331 2361.557">
  <defs>
    <clipPath id="clip-path">
      <rect id="Rectángulo_260" data-name="Rectángulo 260" width="295.194" height="295.194" transform="translate(295.194 295.194) rotate(180)" fill="none"/>
    </clipPath>
  </defs>
  <g id="back_3" transform="translate(-0.001)">
    <g id="Grupo_192" data-name="Grupo 192" transform="translate(295.194 590.39)">
      <g id="Grupo_191" data-name="Grupo 191" clip-path="url(#clip-path)">
        <g id="Grupo_190" data-name="Grupo 190" transform="translate(-134.78 -133.797)">
          <line id="Línea_794" data-name="Línea 794" y1="297.709" x2="297.709" transform="translate(244.794 244.794)" fill="none" stroke="#eedecf" stroke-miterlimit="10" stroke-width="3"/>
          <line id="Línea_795" data-name="Línea 795" y1="297.709" x2="297.709" transform="translate(267.048 267.048)" fill="none" stroke="#eedecf" stroke-miterlimit="10" stroke-width="3"/>
          <line id="Línea_796" data-name="Línea 796" y1="297.709" x2="297.709" transform="translate(222.54 222.54)" fill="none" stroke="#eedecf" stroke-miterlimit="10" stroke-width="3"/>
          <line id="Línea_797" data-name="Línea 797" y1="297.709" x2="297.709" transform="translate(200.287 200.286)" fill="none" stroke="#eedecf" stroke-miterlimit="10" stroke-width="3"/>
          <line id="Línea_798" data-name="Línea 798" y1="297.709" x2="297.709" transform="translate(178.032 178.032)" fill="none" stroke="#eedecf" stroke-miterlimit="10" stroke-width="3"/>
          <line id="Línea_799" data-name="Línea 799" y1="297.709" x2="297.709" transform="translate(155.778 155.778)" fill="none" stroke="#eedecf" stroke-miterlimit="10" stroke-width="3"/>
          <line id="Línea_800" data-name="Línea 800" y1="297.709" x2="297.709" transform="translate(133.523 133.524)" fill="none" stroke="#eedecf" stroke-miterlimit="10" stroke-width="3"/>
          <line id="Línea_801" data-name="Línea 801" y1="297.709" x2="297.709" transform="translate(111.27 111.27)" fill="none" stroke="#eedecf" stroke-miterlimit="10" stroke-width="3"/>
          <line id="Línea_802" data-name="Línea 802" y1="297.709" x2="297.709" transform="translate(89.017 89.016)" fill="none" stroke="#eedecf" stroke-miterlimit="10" stroke-width="3"/>
          <line id="Línea_803" data-name="Línea 803" y1="297.709" x2="297.709" transform="translate(66.762 66.762)" fill="none" stroke="#eedecf" stroke-miterlimit="10" stroke-width="3"/>
          <line id="Línea_804" data-name="Línea 804" y1="297.709" x2="297.709" transform="translate(44.508 44.508)" fill="none" stroke="#eedecf" stroke-miterlimit="10" stroke-width="3"/>
          <line id="Línea_805" data-name="Línea 805" y1="297.709" x2="297.709" transform="translate(22.253 22.254)" fill="none" stroke="#eedecf" stroke-miterlimit="10" stroke-width="3"/>
          <line id="Línea_806" data-name="Línea 806" y1="297.709" x2="297.709" fill="none" stroke="#eedecf" stroke-miterlimit="10" stroke-width="3"/>
        </g>
      </g>
    </g>
    <g id="Grupo_195" data-name="Grupo 195" transform="translate(590.388 1182.747)">
      <g id="Grupo_194" data-name="Grupo 194" clip-path="url(#clip-path)">
        <g id="Grupo_193" data-name="Grupo 193" transform="translate(-134.78 -133.797)">
          <line id="Línea_807" data-name="Línea 807" y1="297.709" x2="297.709" transform="translate(244.794 244.794)" fill="none" stroke="#eedecf" stroke-miterlimit="10" stroke-width="3"/>
          <line id="Línea_808" data-name="Línea 808" y1="297.709" x2="297.709" transform="translate(267.048 267.048)" fill="none" stroke="#eedecf" stroke-miterlimit="10" stroke-width="3"/>
          <line id="Línea_809" data-name="Línea 809" y1="297.709" x2="297.709" transform="translate(222.54 222.54)" fill="none" stroke="#eedecf" stroke-miterlimit="10" stroke-width="3"/>
          <line id="Línea_810" data-name="Línea 810" y1="297.709" x2="297.709" transform="translate(200.287 200.286)" fill="none" stroke="#eedecf" stroke-miterlimit="10" stroke-width="3"/>
          <line id="Línea_811" data-name="Línea 811" y1="297.709" x2="297.709" transform="translate(178.032 178.032)" fill="none" stroke="#eedecf" stroke-miterlimit="10" stroke-width="3"/>
          <line id="Línea_812" data-name="Línea 812" y1="297.709" x2="297.709" transform="translate(155.778 155.778)" fill="none" stroke="#eedecf" stroke-miterlimit="10" stroke-width="3"/>
          <line id="Línea_813" data-name="Línea 813" y1="297.709" x2="297.709" transform="translate(133.523 133.524)" fill="none" stroke="#eedecf" stroke-miterlimit="10" stroke-width="3"/>
          <line id="Línea_814" data-name="Línea 814" y1="297.709" x2="297.709" transform="translate(111.27 111.27)" fill="none" stroke="#eedecf" stroke-miterlimit="10" stroke-width="3"/>
          <line id="Línea_815" data-name="Línea 815" y1="297.709" x2="297.709" transform="translate(89.017 89.016)" fill="none" stroke="#eedecf" stroke-miterlimit="10" stroke-width="3"/>
          <line id="Línea_816" data-name="Línea 816" y1="297.709" x2="297.709" transform="translate(66.762 66.762)" fill="none" stroke="#eedecf" stroke-miterlimit="10" stroke-width="3"/>
          <line id="Línea_817" data-name="Línea 817" y1="297.709" x2="297.709" transform="translate(44.508 44.508)" fill="none" stroke="#eedecf" stroke-miterlimit="10" stroke-width="3"/>
          <line id="Línea_818" data-name="Línea 818" y1="297.709" x2="297.709" transform="translate(22.253 22.254)" fill="none" stroke="#eedecf" stroke-miterlimit="10" stroke-width="3"/>
          <line id="Línea_819" data-name="Línea 819" y1="297.709" x2="297.709" fill="none" stroke="#eedecf" stroke-miterlimit="10" stroke-width="3"/>
        </g>
      </g>
    </g>
    <g id="Grupo_198" data-name="Grupo 198" transform="translate(1475.971 885.584)">
      <g id="Grupo_197" data-name="Grupo 197" clip-path="url(#clip-path)">
        <g id="Grupo_196" data-name="Grupo 196" transform="translate(-134.78 -133.797)">
          <line id="Línea_820" data-name="Línea 820" y1="297.709" x2="297.709" transform="translate(244.794 244.794)" fill="none" stroke="#eedecf" stroke-miterlimit="10" stroke-width="3"/>
          <line id="Línea_821" data-name="Línea 821" y1="297.709" x2="297.709" transform="translate(267.047 267.048)" fill="none" stroke="#eedecf" stroke-miterlimit="10" stroke-width="3"/>
          <line id="Línea_822" data-name="Línea 822" y1="297.709" x2="297.709" transform="translate(222.54 222.54)" fill="none" stroke="#eedecf" stroke-miterlimit="10" stroke-width="3"/>
          <line id="Línea_823" data-name="Línea 823" y1="297.709" x2="297.709" transform="translate(200.285 200.286)" fill="none" stroke="#eedecf" stroke-miterlimit="10" stroke-width="3"/>
          <line id="Línea_824" data-name="Línea 824" y1="297.709" x2="297.709" transform="translate(178.032 178.032)" fill="none" stroke="#eedecf" stroke-miterlimit="10" stroke-width="3"/>
          <line id="Línea_825" data-name="Línea 825" y1="297.709" x2="297.709" transform="translate(155.778 155.778)" fill="none" stroke="#eedecf" stroke-miterlimit="10" stroke-width="3"/>
          <line id="Línea_826" data-name="Línea 826" y1="297.709" x2="297.709" transform="translate(133.523 133.524)" fill="none" stroke="#eedecf" stroke-miterlimit="10" stroke-width="3"/>
          <line id="Línea_827" data-name="Línea 827" y1="297.709" x2="297.709" transform="translate(111.27 111.27)" fill="none" stroke="#eedecf" stroke-miterlimit="10" stroke-width="3"/>
          <line id="Línea_828" data-name="Línea 828" y1="297.709" x2="297.709" transform="translate(89.015 89.016)" fill="none" stroke="#eedecf" stroke-miterlimit="10" stroke-width="3"/>
          <line id="Línea_829" data-name="Línea 829" y1="297.709" x2="297.709" transform="translate(66.762 66.762)" fill="none" stroke="#eedecf" stroke-miterlimit="10" stroke-width="3"/>
          <line id="Línea_830" data-name="Línea 830" y1="297.709" x2="297.709" transform="translate(44.508 44.508)" fill="none" stroke="#eedecf" stroke-miterlimit="10" stroke-width="3"/>
          <line id="Línea_831" data-name="Línea 831" y1="297.709" x2="297.709" transform="translate(22.253 22.254)" fill="none" stroke="#eedecf" stroke-miterlimit="10" stroke-width="3"/>
          <line id="Línea_832" data-name="Línea 832" y1="297.709" x2="297.709" fill="none" stroke="#eedecf" stroke-miterlimit="10" stroke-width="3"/>
        </g>
      </g>
    </g>
    <g id="Grupo_201" data-name="Grupo 201" transform="translate(2066.359 295.196)">
      <g id="Grupo_200" data-name="Grupo 200" clip-path="url(#clip-path)">
        <g id="Grupo_199" data-name="Grupo 199" transform="translate(-134.78 -133.797)">
          <line id="Línea_833" data-name="Línea 833" y1="297.709" x2="297.709" transform="translate(244.794 244.794)" fill="none" stroke="#eedecf" stroke-miterlimit="10" stroke-width="3"/>
          <line id="Línea_834" data-name="Línea 834" y1="297.709" x2="297.709" transform="translate(267.047 267.048)" fill="none" stroke="#eedecf" stroke-miterlimit="10" stroke-width="3"/>
          <line id="Línea_835" data-name="Línea 835" y1="297.709" x2="297.709" transform="translate(222.539 222.54)" fill="none" stroke="#eedecf" stroke-miterlimit="10" stroke-width="3"/>
          <line id="Línea_836" data-name="Línea 836" y1="297.709" x2="297.709" transform="translate(200.285 200.286)" fill="none" stroke="#eedecf" stroke-miterlimit="10" stroke-width="3"/>
          <line id="Línea_837" data-name="Línea 837" y1="297.709" x2="297.709" transform="translate(178.032 178.032)" fill="none" stroke="#eedecf" stroke-miterlimit="10" stroke-width="3"/>
          <line id="Línea_838" data-name="Línea 838" y1="297.709" x2="297.709" transform="translate(155.777 155.778)" fill="none" stroke="#eedecf" stroke-miterlimit="10" stroke-width="3"/>
          <line id="Línea_839" data-name="Línea 839" y1="297.709" x2="297.709" transform="translate(133.523 133.524)" fill="none" stroke="#eedecf" stroke-miterlimit="10" stroke-width="3"/>
          <line id="Línea_840" data-name="Línea 840" y1="297.709" x2="297.709" transform="translate(111.27 111.27)" fill="none" stroke="#eedecf" stroke-miterlimit="10" stroke-width="3"/>
          <line id="Línea_841" data-name="Línea 841" y1="297.709" x2="297.709" transform="translate(89.015 89.016)" fill="none" stroke="#eedecf" stroke-miterlimit="10" stroke-width="3"/>
          <line id="Línea_842" data-name="Línea 842" y1="297.709" x2="297.709" transform="translate(66.762 66.762)" fill="none" stroke="#eedecf" stroke-miterlimit="10" stroke-width="3"/>
          <line id="Línea_843" data-name="Línea 843" y1="297.709" x2="297.709" transform="translate(44.507 44.508)" fill="none" stroke="#eedecf" stroke-miterlimit="10" stroke-width="3"/>
          <line id="Línea_844" data-name="Línea 844" y1="297.709" x2="297.709" transform="translate(22.253 22.254)" fill="none" stroke="#eedecf" stroke-miterlimit="10" stroke-width="3"/>
          <line id="Línea_845" data-name="Línea 845" y1="297.709" x2="297.709" fill="none" stroke="#eedecf" stroke-miterlimit="10" stroke-width="3"/>
        </g>
      </g>
    </g>
    <g id="Grupo_204" data-name="Grupo 204" transform="translate(2656.749 885.584)">
      <g id="Grupo_203" data-name="Grupo 203" clip-path="url(#clip-path)">
        <g id="Grupo_202" data-name="Grupo 202" transform="translate(-134.782 -133.797)">
          <line id="Línea_846" data-name="Línea 846" y1="297.709" x2="297.709" transform="translate(244.794 244.794)" fill="none" stroke="#eedecf" stroke-miterlimit="10" stroke-width="3"/>
          <line id="Línea_847" data-name="Línea 847" y1="297.709" x2="297.709" transform="translate(267.048 267.048)" fill="none" stroke="#eedecf" stroke-miterlimit="10" stroke-width="3"/>
          <line id="Línea_848" data-name="Línea 848" y1="297.709" x2="297.709" transform="translate(222.54 222.54)" fill="none" stroke="#eedecf" stroke-miterlimit="10" stroke-width="3"/>
          <line id="Línea_849" data-name="Línea 849" y1="297.709" x2="297.709" transform="translate(200.287 200.286)" fill="none" stroke="#eedecf" stroke-miterlimit="10" stroke-width="3"/>
          <line id="Línea_850" data-name="Línea 850" y1="297.709" x2="297.709" transform="translate(178.032 178.032)" fill="none" stroke="#eedecf" stroke-miterlimit="10" stroke-width="3"/>
          <line id="Línea_851" data-name="Línea 851" y1="297.709" x2="297.709" transform="translate(155.778 155.778)" fill="none" stroke="#eedecf" stroke-miterlimit="10" stroke-width="3"/>
          <line id="Línea_852" data-name="Línea 852" y1="297.709" x2="297.709" transform="translate(133.525 133.524)" fill="none" stroke="#eedecf" stroke-miterlimit="10" stroke-width="3"/>
          <line id="Línea_853" data-name="Línea 853" y1="297.709" x2="297.709" transform="translate(111.27 111.27)" fill="none" stroke="#eedecf" stroke-miterlimit="10" stroke-width="3"/>
          <line id="Línea_854" data-name="Línea 854" y1="297.709" x2="297.709" transform="translate(89.017 89.016)" fill="none" stroke="#eedecf" stroke-miterlimit="10" stroke-width="3"/>
          <line id="Línea_855" data-name="Línea 855" y1="297.709" x2="297.709" transform="translate(66.762 66.762)" fill="none" stroke="#eedecf" stroke-miterlimit="10" stroke-width="3"/>
          <line id="Línea_856" data-name="Línea 856" y1="297.709" x2="297.709" transform="translate(44.508 44.508)" fill="none" stroke="#eedecf" stroke-miterlimit="10" stroke-width="3"/>
          <line id="Línea_857" data-name="Línea 857" y1="297.709" x2="297.709" transform="translate(22.255 22.254)" fill="none" stroke="#eedecf" stroke-miterlimit="10" stroke-width="3"/>
          <line id="Línea_858" data-name="Línea 858" y1="297.709" x2="297.709" fill="none" stroke="#eedecf" stroke-miterlimit="10" stroke-width="3"/>
        </g>
      </g>
    </g>
    <g id="Grupo_207" data-name="Grupo 207" transform="translate(2951.943 1771.167)">
      <g id="Grupo_206" data-name="Grupo 206" transform="translate(0 0)" clip-path="url(#clip-path)">
        <g id="Grupo_205" data-name="Grupo 205" transform="translate(-134.782 -133.797)">
          <line id="Línea_859" data-name="Línea 859" y1="297.709" x2="297.709" transform="translate(244.794 244.794)" fill="none" stroke="#eedecf" stroke-miterlimit="10" stroke-width="3"/>
          <line id="Línea_860" data-name="Línea 860" y1="297.709" x2="297.709" transform="translate(267.048 267.048)" fill="none" stroke="#eedecf" stroke-miterlimit="10" stroke-width="3"/>
          <line id="Línea_861" data-name="Línea 861" y1="297.709" x2="297.709" transform="translate(222.54 222.54)" fill="none" stroke="#eedecf" stroke-miterlimit="10" stroke-width="3"/>
          <line id="Línea_862" data-name="Línea 862" y1="297.709" x2="297.709" transform="translate(200.287 200.286)" fill="none" stroke="#eedecf" stroke-miterlimit="10" stroke-width="3"/>
          <line id="Línea_863" data-name="Línea 863" y1="297.709" x2="297.709" transform="translate(178.032 178.032)" fill="none" stroke="#eedecf" stroke-miterlimit="10" stroke-width="3"/>
          <line id="Línea_864" data-name="Línea 864" y1="297.709" x2="297.709" transform="translate(155.778 155.778)" fill="none" stroke="#eedecf" stroke-miterlimit="10" stroke-width="3"/>
          <line id="Línea_865" data-name="Línea 865" y1="297.709" x2="297.709" transform="translate(133.525 133.524)" fill="none" stroke="#eedecf" stroke-miterlimit="10" stroke-width="3"/>
          <line id="Línea_866" data-name="Línea 866" y1="297.709" x2="297.709" transform="translate(111.27 111.27)" fill="none" stroke="#eedecf" stroke-miterlimit="10" stroke-width="3"/>
          <line id="Línea_867" data-name="Línea 867" y1="297.709" x2="297.709" transform="translate(89.017 89.016)" fill="none" stroke="#eedecf" stroke-miterlimit="10" stroke-width="3"/>
          <line id="Línea_868" data-name="Línea 868" y1="297.709" x2="297.709" transform="translate(66.762 66.762)" fill="none" stroke="#eedecf" stroke-miterlimit="10" stroke-width="3"/>
          <line id="Línea_869" data-name="Línea 869" y1="297.709" x2="297.709" transform="translate(44.508 44.508)" fill="none" stroke="#eedecf" stroke-miterlimit="10" stroke-width="3"/>
          <line id="Línea_870" data-name="Línea 870" y1="297.709" x2="297.709" transform="translate(22.255 22.254)" fill="none" stroke="#eedecf" stroke-miterlimit="10" stroke-width="3"/>
          <line id="Línea_871" data-name="Línea 871" y1="297.709" x2="297.709" fill="none" stroke="#eedecf" stroke-miterlimit="10" stroke-width="3"/>
        </g>
      </g>
    </g>
    <g id="Grupo_210" data-name="Grupo 210" transform="translate(2066.359 1180.779)">
      <g id="Grupo_209" data-name="Grupo 209" clip-path="url(#clip-path)">
        <g id="Grupo_208" data-name="Grupo 208" transform="translate(-134.78 -133.797)">
          <line id="Línea_872" data-name="Línea 872" y1="297.709" x2="297.709" transform="translate(244.794 244.794)" fill="none" stroke="#eedecf" stroke-miterlimit="10" stroke-width="3"/>
          <line id="Línea_873" data-name="Línea 873" y1="297.709" x2="297.709" transform="translate(267.047 267.048)" fill="none" stroke="#eedecf" stroke-miterlimit="10" stroke-width="3"/>
          <line id="Línea_874" data-name="Línea 874" y1="297.709" x2="297.709" transform="translate(222.539 222.54)" fill="none" stroke="#eedecf" stroke-miterlimit="10" stroke-width="3"/>
          <line id="Línea_875" data-name="Línea 875" y1="297.709" x2="297.709" transform="translate(200.285 200.286)" fill="none" stroke="#eedecf" stroke-miterlimit="10" stroke-width="3"/>
          <line id="Línea_876" data-name="Línea 876" y1="297.709" x2="297.709" transform="translate(178.032 178.032)" fill="none" stroke="#eedecf" stroke-miterlimit="10" stroke-width="3"/>
          <line id="Línea_877" data-name="Línea 877" y1="297.709" x2="297.709" transform="translate(155.777 155.778)" fill="none" stroke="#eedecf" stroke-miterlimit="10" stroke-width="3"/>
          <line id="Línea_878" data-name="Línea 878" y1="297.709" x2="297.709" transform="translate(133.523 133.524)" fill="none" stroke="#eedecf" stroke-miterlimit="10" stroke-width="3"/>
          <line id="Línea_879" data-name="Línea 879" y1="297.709" x2="297.709" transform="translate(111.27 111.27)" fill="none" stroke="#eedecf" stroke-miterlimit="10" stroke-width="3"/>
          <line id="Línea_880" data-name="Línea 880" y1="297.709" x2="297.709" transform="translate(89.015 89.016)" fill="none" stroke="#eedecf" stroke-miterlimit="10" stroke-width="3"/>
          <line id="Línea_881" data-name="Línea 881" y1="297.709" x2="297.709" transform="translate(66.762 66.762)" fill="none" stroke="#eedecf" stroke-miterlimit="10" stroke-width="3"/>
          <line id="Línea_882" data-name="Línea 882" y1="297.709" x2="297.709" transform="translate(44.507 44.508)" fill="none" stroke="#eedecf" stroke-miterlimit="10" stroke-width="3"/>
          <line id="Línea_883" data-name="Línea 883" y1="297.709" x2="297.709" transform="translate(22.253 22.254)" fill="none" stroke="#eedecf" stroke-miterlimit="10" stroke-width="3"/>
          <line id="Línea_884" data-name="Línea 884" y1="297.709" x2="297.709" fill="none" stroke="#eedecf" stroke-miterlimit="10" stroke-width="3"/>
        </g>
      </g>
    </g>
    <g id="Grupo_213" data-name="Grupo 213" transform="translate(0.001 2066.361)">
      <g id="Grupo_212" data-name="Grupo 212" transform="translate(0 0)" clip-path="url(#clip-path)">
        <g id="Grupo_211" data-name="Grupo 211" transform="translate(-134.782 -133.797)">
          <line id="Línea_885" data-name="Línea 885" y1="297.709" x2="297.709" transform="translate(244.794 244.794)" fill="none" stroke="#eedecf" stroke-miterlimit="10" stroke-width="3"/>
          <line id="Línea_886" data-name="Línea 886" y1="297.709" x2="297.709" transform="translate(267.048 267.048)" fill="none" stroke="#eedecf" stroke-miterlimit="10" stroke-width="3"/>
          <line id="Línea_887" data-name="Línea 887" y1="297.709" x2="297.709" transform="translate(222.54 222.54)" fill="none" stroke="#eedecf" stroke-miterlimit="10" stroke-width="3"/>
          <line id="Línea_888" data-name="Línea 888" y1="297.709" x2="297.709" transform="translate(200.286 200.286)" fill="none" stroke="#eedecf" stroke-miterlimit="10" stroke-width="3"/>
          <line id="Línea_889" data-name="Línea 889" y1="297.709" x2="297.709" transform="translate(178.032 178.032)" fill="none" stroke="#eedecf" stroke-miterlimit="10" stroke-width="3"/>
          <line id="Línea_890" data-name="Línea 890" y1="297.709" x2="297.709" transform="translate(155.778 155.778)" fill="none" stroke="#eedecf" stroke-miterlimit="10" stroke-width="3"/>
          <line id="Línea_891" data-name="Línea 891" y1="297.709" x2="297.709" transform="translate(133.524 133.524)" fill="none" stroke="#eedecf" stroke-miterlimit="10" stroke-width="3"/>
          <line id="Línea_892" data-name="Línea 892" y1="297.709" x2="297.709" transform="translate(111.27 111.27)" fill="none" stroke="#eedecf" stroke-miterlimit="10" stroke-width="3"/>
          <line id="Línea_893" data-name="Línea 893" y1="297.709" x2="297.709" transform="translate(89.016 89.016)" fill="none" stroke="#eedecf" stroke-miterlimit="10" stroke-width="3"/>
          <line id="Línea_894" data-name="Línea 894" y1="297.709" x2="297.709" transform="translate(66.762 66.762)" fill="none" stroke="#eedecf" stroke-miterlimit="10" stroke-width="3"/>
          <line id="Línea_895" data-name="Línea 895" y1="297.709" x2="297.709" transform="translate(44.508 44.508)" fill="none" stroke="#eedecf" stroke-miterlimit="10" stroke-width="3"/>
          <line id="Línea_896" data-name="Línea 896" y1="297.709" x2="297.709" transform="translate(22.254 22.254)" fill="none" stroke="#eedecf" stroke-miterlimit="10" stroke-width="3"/>
          <line id="Línea_897" data-name="Línea 897" y1="297.709" x2="297.709" fill="none" stroke="#eedecf" stroke-miterlimit="10" stroke-width="3"/>
        </g>
      </g>
    </g>
    <rect id="Rectángulo_268" data-name="Rectángulo 268" width="295.194" height="295.194" transform="translate(295.196 295.196) rotate(180)" fill="#5b6a88"/>
    <rect id="Rectángulo_269" data-name="Rectángulo 269" width="295.194" height="295.194" transform="translate(1180.777 590.39) rotate(180)" fill="#a47b7a"/>
    <rect id="Rectángulo_270" data-name="Rectángulo 270" width="295.194" height="295.194" transform="translate(1771.165 590.39) rotate(180)" fill="#eedecf"/>
    <rect id="Rectángulo_271" data-name="Rectángulo 271" width="295.194" height="295.194" transform="translate(2066.359 1180.779) rotate(180)" fill="#eedecf"/>
    <rect id="Rectángulo_272" data-name="Rectángulo 272" width="295.194" height="295.194" transform="translate(2361.553 885.585) rotate(180)" fill="#5b6a88"/>
    <rect id="Rectángulo_273" data-name="Rectángulo 273" width="295.194" height="295.194" transform="translate(2656.749 295.196) rotate(180)" fill="#a47b7a"/>
    <rect id="Rectángulo_274" data-name="Rectángulo 274" width="295.194" height="295.194" transform="translate(2951.943 590.39) rotate(180)" fill="#eedecf"/>
    <rect id="Rectángulo_275" data-name="Rectángulo 275" width="295.194" height="295.194" transform="translate(3542.332 295.196) rotate(180)" fill="#eedecf"/>
    <rect id="Rectángulo_276" data-name="Rectángulo 276" width="295.194" height="295.194" transform="translate(885.583 295.196) rotate(180)" fill="#a47b7a"/>
    <rect id="Rectángulo_277" data-name="Rectángulo 277" width="295.194" height="295.194" transform="translate(885.583 1771.167) rotate(180)" fill="#eedecf"/>
    <rect id="Rectángulo_278" data-name="Rectángulo 278" width="295.194" height="295.194" transform="translate(590.388 2066.361) rotate(180)" fill="#d2b5ad"/>
    <rect id="Rectángulo_279" data-name="Rectángulo 279" width="295.194" height="295.194" transform="translate(295.196 1477.941) rotate(180)" fill="#5b6a88"/>
    <rect id="Rectángulo_280" data-name="Rectángulo 280" width="295.194" height="295.194" transform="translate(885.583 1180.779) rotate(180)" fill="#d2b5ad"/>
    <rect id="Rectángulo_281" data-name="Rectángulo 281" width="295.194" height="295.194" transform="translate(1475.971 1180.779) rotate(180)" fill="#a47b7a"/>
    <rect id="Rectángulo_282" data-name="Rectángulo 282" width="295.194" height="295.194" transform="translate(1475.971 1771.167) rotate(180)" fill="#5b6a88"/>
    <rect id="Rectángulo_283" data-name="Rectángulo 283" width="295.194" height="295.194" transform="translate(2656.749 2361.555) rotate(180)" fill="#a47b7a"/>
    <path id="Trazado_329" data-name="Trazado 329" d="M4146.026,3.141c163.033,0,295.194,132.161,295.194,295.194s-132.162,295.194-295.194,295.194Z" transform="translate(-3850.833 -3.138)" fill="#eedecf"/>
    <path id="Trazado_330" data-name="Trazado 330" d="M4636.415,303.141c0,163.03-132.162,295.194-295.194,295.194s-295.194-132.164-295.194-295.194Z" transform="translate(-4046.026 582.444)" fill="#eedecf"/>
    <path id="Trazado_331" data-name="Trazado 331" d="M4346.025,303.141c163.033,0,295.195,132.161,295.195,295.194s-132.162,295.194-295.195,295.194Z" transform="translate(-3460.443 582.444)" fill="#eedecf"/>
    <path id="Trazado_332" data-name="Trazado 332" d="M4941.221,693.528c-163.033,0-295.195-132.161-295.195-295.194S4778.188,103.14,4941.221,103.14Z" transform="translate(-2874.861 192.054)" fill="#eedecf"/>
    <path id="Trazado_333" data-name="Trazado 333" d="M4546.026,298.335c0-163.033,132.161-295.194,295.193-295.194s295.2,132.161,295.2,295.194Z" transform="translate(-3070.055 -3.138)" fill="#a47b7a"/>
    <path id="Trazado_334" data-name="Trazado 334" d="M4746.026,303.141c163.03,0,295.193,132.161,295.193,295.194s-132.163,295.194-295.193,295.194Z" transform="translate(-2679.667 582.444)" fill="#d2b5ad"/>
    <path id="Trazado_335" data-name="Trazado 335" d="M5436.414,603.141c0,163.03-132.162,295.194-295.194,295.194s-295.194-132.164-295.194-295.194Z" transform="translate(-2484.472 1168.027)" fill="#d2b5ad"/>
    <path id="Trazado_336" data-name="Trazado 336" d="M5146.026,603.14c163.033,0,295.194,132.164,295.194,295.194s-132.161,295.194-295.194,295.194Z" transform="translate(-1898.89 1168.025)" fill="#eedecf"/>
    <path id="Trazado_337" data-name="Trazado 337" d="M5636.415,503.141c0,163.03-132.161,295.194-295.194,295.194s-295.194-132.164-295.194-295.194Z" transform="translate(-2094.085 972.833)" fill="#a47b7a"/>
    <path id="Trazado_338" data-name="Trazado 338" d="M5146.026,203.141c163.033,0,295.194,132.164,295.194,295.194s-132.161,295.194-295.194,295.194Z" transform="translate(-1898.89 387.25)" fill="#eedecf"/>
    <path id="Trazado_339" data-name="Trazado 339" d="M5536.415,3.14c0,163.033-132.163,295.194-295.2,295.194S4946.025,166.173,4946.025,3.14Z" transform="translate(-2289.278 -3.14)" fill="#d2b5ad"/>
    <path id="Trazado_340" data-name="Trazado 340" d="M4846.025,498.335c0-163.033,132.165-295.194,295.194-295.194S5436.414,335.3,5436.414,498.335Z" transform="translate(-2484.472 387.25)" fill="#a47b7a"/>
    <path id="Trazado_341" data-name="Trazado 341" d="M4446.026,3.141c163.033,0,295.194,132.161,295.194,295.194s-132.162,295.194-295.194,295.194Z" transform="translate(-3265.25 -3.138)" fill="#d2b5ad"/>
    <path id="Trazado_342" data-name="Trazado 342" d="M4936.415,603.141H4346.025a300.323,300.323,0,0,0,298.147,298.146c0-163.033,128.775-295.194,291.8-295.194H4894.67A297.691,297.691,0,0,1,4936.415,603.141Z" transform="translate(-3460.443 1168.027)" fill="#a47b7a"/>
    <path id="Trazado_343" data-name="Trazado 343" d="M4446.026,898.335c0,163.03,132.164,295.194,295.194,295.194V603.141C4578.19,603.141,4446.026,735.3,4446.026,898.335Z" transform="translate(-3265.25 1168.027)" fill="#eedecf"/>
    <path id="Trazado_344" data-name="Trazado 344" d="M4541.221,398.335H4246.026V103.141Z" transform="translate(-3655.637 192.055)" fill="#5b6a88"/>
    <path id="Trazado_345" data-name="Trazado 345" d="M4641.22,498.335H4346.026V203.141Z" transform="translate(-3460.442 387.25)" fill="#d2b5ad"/>
    <path id="Trazado_346" data-name="Trazado 346" d="M4841.221,498.335H4546.026V203.141Z" transform="translate(-3070.054 387.25)" fill="#eedecf"/>
    <path id="Trazado_347" data-name="Trazado 347" d="M5041.219,398.335H4746.026V103.14Z" transform="translate(-2679.667 192.055)" fill="#eedecf"/>
    <path id="Trazado_348" data-name="Trazado 348" d="M4846.026,103.141h295.194V398.335Z" transform="translate(-2484.471 192.055)" fill="#d2b5ad"/>
    <path id="Trazado_349" data-name="Trazado 349" d="M5046.026,403.141h295.195V698.335Z" transform="translate(-2094.083 777.638)" fill="#eedecf"/>
    <path id="Trazado_350" data-name="Trazado 350" d="M5341.221,398.335H5046.026V103.141Z" transform="translate(-2094.083 192.055)" fill="#d2b5ad"/>
    <path id="Trazado_351" data-name="Trazado 351" d="M5141.221,598.335,4846.026,303.141V598.335h0V893.529h295.194V598.335Z" transform="translate(-2484.471 582.444)" fill="#a47b7a"/>
    <path id="Trazado_352" data-name="Trazado 352" d="M4841.221,403.141V698.335H4546.026Z" transform="translate(-3070.054 777.638)" fill="#5b6a88"/>
    <path id="Trazado_353" data-name="Trazado 353" d="M4746.026,898.335V603.141h295.194Z" transform="translate(-2679.666 1168.027)" fill="#eedecf"/>
    <path id="Trazado_354" data-name="Trazado 354" d="M4641.22,798.335H4346.026V503.141Z" transform="translate(-3460.442 972.832)" fill="#eedecf"/>
    <path id="Trazado_355" data-name="Trazado 355" d="M4246.026,998.335V703.141h295.195Z" transform="translate(-3655.637 1363.221)" fill="#d2b5ad"/>
    <path id="Trazado_356" data-name="Trazado 356" d="M4341.221,603.141V898.335H4046.027Z" transform="translate(-4046.026 1168.026)" fill="#a47b7a"/>
    <path id="Trazado_357" data-name="Trazado 357" d="M4146.027,799V503.807h295.194Z" transform="translate(-3850.831 974.133)" fill="#5b6a88"/>
    <path id="Trazado_358" data-name="Trazado 358" d="M4046.027,103.141h295.195V398.335Z" transform="translate(-4046.026 192.055)" fill="#a47b7a"/>
    <path id="Trazado_359" data-name="Trazado 359" d="M4246.026,498.335c163.033,0,295.194-132.164,295.194-295.194H4246.026Z" transform="translate(-3655.638 387.25)" fill="#eedecf"/>
    <rect id="Rectángulo_284" data-name="Rectángulo 284" width="295.194" height="295.194" transform="translate(1771.167 2066.361) rotate(-90)" fill="#eedecf"/>
    <rect id="Rectángulo_285" data-name="Rectángulo 285" width="295.194" height="295.194" transform="translate(2951.943 2361.554) rotate(-90)" fill="#a47b7a"/>
    <rect id="Rectángulo_286" data-name="Rectángulo 286" width="295.194" height="295.194" transform="translate(2066.359 1771.167) rotate(-90)" fill="#d2b5ad"/>
    <rect id="Rectángulo_287" data-name="Rectángulo 287" width="295.194" height="295.194" transform="translate(2656.749 1771.167) rotate(-90)" fill="#eedecf"/>
    <rect id="Rectángulo_288" data-name="Rectángulo 288" width="295.194" height="295.194" transform="translate(2951.943 1180.778) rotate(-90)" fill="#eedecf"/>
    <rect id="Rectángulo_289" data-name="Rectángulo 289" width="295.194" height="295.194" transform="translate(3247.137 1475.973) rotate(-90)" fill="#5b6a88"/>
    <rect id="Rectángulo_290" data-name="Rectángulo 290" width="295.194" height="295.194" transform="translate(2066.359 2361.556) rotate(-90)" fill="#5b6a88"/>
    <rect id="Rectángulo_291" data-name="Rectángulo 291" width="295.194" height="295.194" transform="translate(1475.972 2361.555) rotate(-90)" fill="#5b6a88"/>
    <rect id="Rectángulo_292" data-name="Rectángulo 292" width="295.194" height="295.194" transform="translate(885.584 2361.555) rotate(-90)" fill="#5b6a88"/>
    <path id="Trazado_360" data-name="Trazado 360" d="M4646.026,798.335V503.141H4941.22Z" transform="translate(-2874.86 972.832)" fill="#d2b5ad"/>
    <path id="Trazado_361" data-name="Trazado 361" d="M4546.026,603.141h295.195V898.335Z" transform="translate(-3070.054 1168.026)" fill="#d2b5ad"/>
    <path id="Trazado_362" data-name="Trazado 362" d="M4546.026,503.141c0,163.03,132.164,295.194,295.193,295.194V503.141Z" transform="translate(-3070.055 972.833)" fill="#eedecf"/>
    <path id="Trazado_363" data-name="Trazado 363" d="M4746.026,298.335c163.03,0,295.193-132.164,295.193-295.194H4746.026Z" transform="translate(-2679.667 -3.138)" fill="#5b6a88"/>
    <path id="Trazado_364" data-name="Trazado 364" d="M4446.026,498.335c163.033,0,295.194-132.164,295.194-295.194H4446.026Z" transform="translate(-3265.25 387.25)" fill="#a47b7a"/>
    <path id="Trazado_365" data-name="Trazado 365" d="M4346.025,3.141c0,163.03,132.164,295.194,295.195,295.194V3.141Z" transform="translate(-3460.443 -3.138)" fill="#5b6a88"/>
    <path id="Trazado_366" data-name="Trazado 366" d="M4446.026,698.335c163.033,0,295.194-132.164,295.194-295.194H4446.026Z" transform="translate(-3265.25 777.639)" fill="#a47b7a"/>
    <path id="Trazado_367" data-name="Trazado 367" d="M4646.026,998.335c163.034,0,295.195-132.164,295.195-295.194H4646.026Z" transform="translate(-2874.861 1363.221)" fill="#eedecf"/>
    <path id="Trazado_368" data-name="Trazado 368" d="M4646.026,698.335c163.03,0,295.195-132.164,295.195-295.194H4646.026Z" transform="translate(-2874.861 777.639)" fill="#5b6a88"/>
    <path id="Trazado_369" data-name="Trazado 369" d="M5241.219,703.14c-163.029,0-295.194,132.164-295.194,295.194h295.194Z" transform="translate(-2289.278 1363.219)" fill="#eedecf"/>
    <path id="Trazado_370" data-name="Trazado 370" d="M4946.025,698.335c163.033,0,295.194-132.164,295.194-295.194H4946.025Z" transform="translate(-2289.278 777.639)" fill="#d2b5ad"/>
    <path id="Trazado_371" data-name="Trazado 371" d="M5046.026,203.141c0,163.03,132.165,295.194,295.194,295.194V203.141Z" transform="translate(-2094.085 387.25)" fill="#d2b5ad"/>
    <path id="Trazado_372" data-name="Trazado 372" d="M5146.026,103.141c0,163.03,132.166,295.194,295.194,295.194V103.141Z" transform="translate(-1898.89 192.056)" fill="#a47b7a"/>
    <path id="Trazado_373" data-name="Trazado 373" d="M4846.025,798.335c163.035,0,295.194-132.164,295.194-295.194H4846.025Z" transform="translate(-2484.472 972.833)" fill="#eedecf"/>
    <path id="Trazado_374" data-name="Trazado 374" d="M4246.026,898.335c163.033,0,295.194-132.164,295.194-295.194H4246.026Z" transform="translate(-3655.638 1168.027)" fill="#d2b5ad"/>
    <path id="Trazado_375" data-name="Trazado 375" d="M4046.026,503.807C4046.026,666.84,4178.191,799,4341.22,799V503.807Z" transform="translate(-4046.026 974.133)" fill="#eedecf"/>
    <path id="Trazado_376" data-name="Trazado 376" d="M4146.026,403.807C4146.026,566.84,4278.19,699,4441.221,699V403.807Z" transform="translate(-3850.833 778.939)" fill="#d2b5ad"/>
    <path id="Trazado_377" data-name="Trazado 377" d="M4341.22,203.141c-163.029,0-295.194,132.161-295.194,295.194H4341.22Z" transform="translate(-4046.026 387.25)" fill="#d2b5ad"/>
    <path id="Trazado_378" data-name="Trazado 378" d="M4146.026,998.335c163.033,0,295.194-132.164,295.194-295.194H4146.026Z" transform="translate(-3850.833 1363.221)" fill="#a47b7a"/>
  </g>
</svg>
