<svg xmlns="http://www.w3.org/2000/svg" width="528.494" height="128.1" viewBox="0 0 528.494 128.1">
  <g id="logo" transform="translate(4918 -7543)">
    <g id="logo-2" data-name="logo" transform="translate(-7560.462 7741.112)">
      <path id="Trazado_5" data-name="Trazado 5" d="M88.52-41.238q0,42.9-39.977,42.9-38.781,0-38.781-41.9V-95.227H31.277v55.25q0,23.109,18.063,23.109,17.73,0,17.73-22.312V-95.227H88.52ZM260.992-95.226,228.188,0h-24.3L171.477-95.227h23.109l19.855,66.273a47.464,47.464,0,0,1,1.926,9.5h.4a53.673,53.673,0,0,1,2.059-9.762l19.723-66.008ZM285.7,0H264.254V-95.227H285.7Z" transform="translate(2744.462 -87)" fill="#232323"/>
      <g id="qr_logo" transform="translate(3042.856 -198.112)">
        <path id="Trazado_2" data-name="Trazado 2" d="M0,128.1V0H128.1V128.1Z" fill="none"/>
        <g id="Grupo_2" data-name="Grupo 2" transform="translate(16.012 16.012)">
          <path id="Trazado_3" data-name="Trazado 3" d="M33.509,21.5A12.07,12.07,0,0,0,21.5,33.509V52.19A12.07,12.07,0,0,0,33.509,64.2H52.19c4.05,0,12.009.068,12.009,0V33.509A12.07,12.07,0,0,0,52.19,21.5Zm53.374,0A12.07,12.07,0,0,0,74.874,33.509V52.19c-.029,5.189,0,12.29,0,12.009-.141-.07,5.362-.165,12.009,0h18.681A12.07,12.07,0,0,0,117.573,52.19V33.509A12.07,12.07,0,0,0,105.564,21.5ZM33.509,29.506H52.19a3.943,3.943,0,0,1,4,4V52.19a3.943,3.943,0,0,1-4,4H33.509a3.943,3.943,0,0,1-4-4V33.509a3.943,3.943,0,0,1,4-4Zm53.374,0h18.681a3.943,3.943,0,0,1,4,4V52.19a3.943,3.943,0,0,1-4,4H86.883a3.943,3.943,0,0,1-4-4V33.509a3.943,3.943,0,0,1,4-4ZM37.512,37.512V48.187H48.187V37.512Zm53.374,0V48.187h10.675V37.512ZM33.509,74.874A12.07,12.07,0,0,0,21.5,86.883v18.681a12.07,12.07,0,0,0,12.009,12.009H52.19A12.07,12.07,0,0,0,64.2,105.564V86.883c0-3.266-.071-12.22,0-12.009,0-.07-8.69,0-12.009,0Zm0,8.006H52.19a3.943,3.943,0,0,1,4,4v18.681a3.943,3.943,0,0,1-4,4H33.509a3.943,3.943,0,0,1-4-4V86.883a3.943,3.943,0,0,1,4-4Zm4,8.006v10.675H48.187V90.886Z" transform="translate(-21.5 -21.5)" fill="#5bb110"/>
        </g>
      </g>
      <path id="Rectángulo_33" data-name="Rectángulo 33" d="M23,0H75A23,23,0,0,1,98,23V98H23A23,23,0,0,1,0,75V23A23,23,0,0,1,23,0Z" transform="translate(2642.462 -186)" fill="#5bb110"/>
      <rect id="Rectángulo_34" data-name="Rectángulo 34" width="63" height="62" rx="8" transform="translate(2659.462 -168)" fill="#fff"/>
      <rect id="Rectángulo_35" data-name="Rectángulo 35" width="27" height="28" transform="translate(2677.462 -151)" fill="#5bb110"/>
      <g id="Grupo_3" data-name="Grupo 3" transform="translate(3112.462 -128.063)">
        <path id="Trazado_3-2" data-name="Trazado 3" d="M76.425,76.425V91.1H91.1V76.425ZM91.1,91.1v13.343h13.343V91.1Zm13.344,0h14.678V76.425H104.446Zm0,13.344v14.678h14.678V104.446Zm-13.344,0H76.425v14.678H91.1Z" transform="translate(-76.425 -76.425)" fill="#dcdcdc"/>
      </g>
    </g>
    <path id="Trazado_5-2" data-name="Trazado 5" d="M180.965,0H156.328L141.52-24.5q-1.66-2.789-3.187-4.98a27.671,27.671,0,0,0-3.088-3.752,12.279,12.279,0,0,0-3.254-2.391,8.259,8.259,0,0,0-3.686-.83h-5.777V0h-21.45V-95.227h34q34.664,0,34.664,25.9a26.819,26.819,0,0,1-1.527,9.2,25.55,25.55,0,0,1-4.316,7.6,27.361,27.361,0,0,1-6.74,5.844,34.761,34.761,0,0,1-8.8,3.852v.266a13.647,13.647,0,0,1,4.117,2.158,29.481,29.481,0,0,1,3.852,3.486,48.642,48.642,0,0,1,3.553,4.283q1.693,2.291,3.088,4.482ZM122.527-79.156v26.5h9.3q6.906,0,11.09-3.984a13.3,13.3,0,0,0,4.25-10.027q0-12.484-14.941-12.484Z" transform="translate(-4815 7653.664)" fill="#5bb110"/>
  </g>
</svg>
