<svg xmlns="http://www.w3.org/2000/svg" width="96.291" height="96.734" viewBox="0 0 96.291 96.734">
  <g id="white-logo" transform="translate(-1426.855 -1978.074)">
    <g id="white-logo-2" data-name="white-logo" transform="translate(0 -8)">
      <g id="white-logo-3" data-name="white-logo" transform="translate(1426.855 1986.074)">
        <path id="Trazado_3" data-name="Trazado 3" d="M33.509,21.5A12.07,12.07,0,0,0,21.5,33.509V52.19A12.07,12.07,0,0,0,33.509,64.2H52.19c4.05,0,12.009.068,12.009,0V33.509A12.07,12.07,0,0,0,52.19,21.5Zm53.374,0A12.07,12.07,0,0,0,74.874,33.509V52.19c-.029,5.189,0,12.29,0,12.009-.141-.07,5.362-.165,12.009,0h18.681A12.07,12.07,0,0,0,117.573,52.19V33.509A12.07,12.07,0,0,0,105.564,21.5ZM33.509,29.506H52.19a3.943,3.943,0,0,1,4,4V52.19a3.943,3.943,0,0,1-4,4H33.509a3.943,3.943,0,0,1-4-4V33.509a3.943,3.943,0,0,1,4-4Zm53.374,0h18.681a3.943,3.943,0,0,1,4,4V52.19a3.943,3.943,0,0,1-4,4H86.883a3.943,3.943,0,0,1-4-4V33.509a3.943,3.943,0,0,1,4-4ZM37.512,37.512V48.187H48.187V37.512Zm53.374,0V48.187h10.675V37.512ZM33.509,74.874A12.07,12.07,0,0,0,21.5,86.883v18.681a12.07,12.07,0,0,0,12.009,12.009H52.19A12.07,12.07,0,0,0,64.2,105.564V86.883c0-3.266-.071-12.22,0-12.009,0-.07-8.69,0-12.009,0Zm0,8.006H52.19a3.943,3.943,0,0,1,4,4v18.681a3.943,3.943,0,0,1-4,4H33.509a3.943,3.943,0,0,1-4-4V86.883a3.943,3.943,0,0,1,4-4Zm4,8.006v10.675H48.187V90.886Z" transform="translate(-21.5 -21.5)" fill="#fff"/>
      </g>
    </g>
    <g id="Grupo_3" data-name="Grupo 3" transform="translate(1480.448 2032.111)">
      <path id="Trazado_3-2" data-name="Trazado 3" d="M76.425,76.425V91.1H91.1V76.425ZM91.1,91.1v13.343h13.343V91.1Zm13.344,0h14.678V76.425H104.446Zm0,13.344v14.678h14.678V104.446Zm-13.344,0H76.425v14.678H91.1Z" transform="translate(-76.425 -76.425)" fill="#fff" opacity="0.63"/>
    </g>
  </g>
</svg>
